<svg xmlns="http://www.w3.org/2000/svg" xmlns:xlink="http://www.w3.org/1999/xlink" contentStyleType="text/css" data-diagram-type="DESCRIPTION" height="1502px" preserveAspectRatio="none" style="width:984px;height:1502px;background:#FFFFFF;" version="1.1" viewBox="0 0 984 1502" width="984px" zoomAndPan="magnify"><defs/><g><!--cluster Partita in corso--><g class="cluster" data-entity="Partita in corso" data-source-line="26" data-uid="ent0004" id="cluster_Partita in corso"><rect fill="#F0F8FF" height="736" rx="2.5" ry="2.5" style="stroke:#000000;stroke-width:1;" width="224.7" x="308.75" y="563.83"/><text fill="#000000" font-family="Verdana" font-size="14" font-weight="bold" lengthAdjust="spacing" textLength="121.5293" x="360.3354" y="578.8251">Partita in corso</text></g><!--entity UC3--><g class="entity" data-entity="UC3" data-source-line="27" data-uid="ent0005" id="entity_UC3"><ellipse cx="421.0999" cy="1057.83" fill="#FFFFFF" rx="96.3499" ry="21.67" style="stroke:#000000;stroke-width:1;"/><text fill="#000000" font-family="Verdana" font-size="14" lengthAdjust="spacing" textLength="167.9795" x="337.1102" y="1062.4784">UC3: Muovere la pedina</text></g><!--entity CalcolaNuovaPos--><g class="entity" data-entity="CalcolaNuovaPos" data-source-line="28" data-uid="ent0006" id="entity_CalcolaNuovaPos"><ellipse cx="421.1027" cy="622.8326" fill="#FFFFFF" rx="76.5927" ry="24.2326" style="stroke:#000000;stroke-width:1;"/><text fill="#000000" font-family="Verdana" font-size="14" lengthAdjust="spacing" textLength="112.9707" x="364.6174" y="622.0194">Calcolare nuova</text><text fill="#000000" font-family="Verdana" font-size="14" lengthAdjust="spacing" textLength="65.9258" x="388.1398" y="638.3162">posizione</text></g><!--entity GestisciRimbalzo--><g class="entity" data-entity="GestisciRimbalzo" data-source-line="29" data-uid="ent0007" id="entity_GestisciRimbalzo"><ellipse cx="421.1023" cy="1257.8282" fill="#FFFFFF" rx="83.3323" ry="25.6682" style="stroke:#000000;stroke-width:1;"/><text fill="#000000" font-family="Verdana" font-size="14" lengthAdjust="spacing" textLength="115.5068" x="363.3489" y="1254.8688">Gestire rimbalzo</text><text fill="#000000" font-family="Verdana" font-size="14" lengthAdjust="spacing" textLength="107.5703" x="367.3171" y="1271.1657">oltre casella 63</text></g><!--entity AggiornaPosizione--><g class="entity" data-entity="AggiornaPosizione" data-source-line="30" data-uid="ent0008" id="entity_AggiornaPosizione"><ellipse cx="421.1034" cy="706.8262" fill="#FFFFFF" rx="80.7834" ry="24.4662" style="stroke:#000000;stroke-width:1;"/><text fill="#000000" font-family="Verdana" font-size="14" lengthAdjust="spacing" textLength="77.3828" x="382.412" y="701.001">Aggiornare</text><text fill="#000000" font-family="Verdana" font-size="14" lengthAdjust="spacing" textLength="118.1045" x="362.0511" y="717.2979">posizione pedina</text></g><!--entity IdentificaCasellaDest--><g class="entity" data-entity="IdentificaCasellaDest" data-source-line="31" data-uid="ent0009" id="entity_IdentificaCasellaDest"><ellipse cx="421.1012" cy="791.8336" fill="#FFFFFF" rx="92.5012" ry="25.0436" style="stroke:#000000;stroke-width:1;"/><text fill="#000000" font-family="Verdana" font-size="14" lengthAdjust="spacing" textLength="132.3369" x="354.9328" y="789.7869">Identificare casella</text><text fill="#000000" font-family="Verdana" font-size="14" lengthAdjust="spacing" textLength="106.1416" x="368.0304" y="806.0838">di destinazione</text></g><!--entity ComunicaNuovaPos--><g class="entity" data-entity="ComunicaNuovaPos" data-source-line="32" data-uid="ent0010" id="entity_ComunicaNuovaPos"><ellipse cx="421.0971" cy="876.8311" fill="#FFFFFF" rx="78.9171" ry="24.7911" style="stroke:#000000;stroke-width:1;"/><text fill="#000000" font-family="Verdana" font-size="14" lengthAdjust="spacing" textLength="84.2598" x="378.9672" y="871.5003">Comunicare</text><text fill="#000000" font-family="Verdana" font-size="14" lengthAdjust="spacing" textLength="113.5518" x="364.3212" y="887.7971">nuova posizione</text></g><!--entity GestisciEffetti--><g class="entity" data-entity="GestisciEffetti" data-source-line="33" data-uid="ent0011" id="entity_GestisciEffetti"><ellipse cx="421.1024" cy="1171.8296" fill="#FFFFFF" rx="76.3024" ry="25.5896" style="stroke:#000000;stroke-width:1;"/><text fill="#000000" font-family="Verdana" font-size="14" lengthAdjust="spacing" textLength="96.9063" x="372.6493" y="1167.6756">Gestire effetti</text><text fill="#000000" font-family="Verdana" font-size="14" lengthAdjust="spacing" textLength="105.7656" x="368.2196" y="1183.9725">caselle speciali</text></g><!--entity VerificaVittoria--><g class="entity" data-entity="VerificaVittoria" data-source-line="34" data-uid="ent0012" id="entity_VerificaVittoria"><ellipse cx="421.1015" cy="960.8287" fill="#FFFFFF" rx="86.6915" ry="24.0487" style="stroke:#000000;stroke-width:1;"/><text fill="#000000" font-family="Verdana" font-size="14" lengthAdjust="spacing" textLength="67.2998" x="387.4516" y="954.3532">Verificare</text><text fill="#000000" font-family="Verdana" font-size="14" lengthAdjust="spacing" textLength="129.5957" x="356.3037" y="970.6501">condizione vittoria</text></g><!--entity GC--><g class="entity" data-entity="GC" data-source-line="23" data-uid="ent0002" id="entity_GC"><ellipse cx="45.002" cy="1349.03" fill="#E6F3FF" rx="8" ry="8" style="stroke:#000000;stroke-width:1;"/><path d="M45.002,1357.03 L45.002,1384.03 M32.002,1365.03 L58.002,1365.03 M45.002,1384.03 L32.002,1399.03 M45.002,1384.03 L58.002,1399.03" fill="none" style="stroke:#000000;stroke-width:1;"/><text fill="#000000" font-family="Verdana" font-size="14" lengthAdjust="spacing" textLength="68.0039" x="11" y="1414.0251">Giocatore</text><text fill="#000000" font-family="Verdana" font-size="14" lengthAdjust="spacing" textLength="59.3633" x="11" y="1430.322">corrente</text></g><!--entity AG_Altri--><g class="entity" data-entity="AG_Altri" data-source-line="24" data-uid="ent0003" id="entity_AG_Altri"><ellipse cx="868.8151" cy="827.18" fill="#E6F3FF" rx="8" ry="8" style="stroke:#000000;stroke-width:1;"/><path d="M868.8151,835.18 L868.8151,862.18 M855.8151,843.18 L881.8151,843.18 M868.8151,862.18 L855.8151,877.18 M868.8151,862.18 L881.8151,877.18" fill="none" style="stroke:#000000;stroke-width:1;"/><text fill="#000000" font-family="Verdana" font-size="14" lengthAdjust="spacing" textLength="94.3701" x="821.63" y="892.1751">Altri giocatori</text></g><g class="entity" data-entity="GMN22" data-source-line="55" data-uid="ent0023" id="entity_GMN22"><path d="M281.66,1318.6 L281.66,1395.41 L79.2,1388.6 L281.66,1403.41 L281.66,1495.0609 A0,0 0 0 0 281.66,1495.0609 L560.5335,1495.0609 A0,0 0 0 0 560.5335,1495.0609 L560.5335,1328.6 L550.5335,1318.6 L281.66,1318.6 A0,0 0 0 0 281.66,1318.6" fill="#FFFFCC" style="stroke:#000000;stroke-width:1;"/><path d="M550.5335,1318.6 L550.5335,1328.6 L560.5335,1328.6 L550.5335,1318.6" fill="#FFFFCC" style="stroke:#000000;stroke-width:1;"/><text fill="#000000" font-family="Verdana" font-size="13" font-weight="bold" lengthAdjust="spacing" textLength="108.6338" x="287.66" y="1335.6669">Precondizione:</text><text fill="#000000" font-family="Verdana" font-size="13" lengthAdjust="spacing" textLength="224.0659" x="287.66" y="1350.7997">- Risultato dadi disponibile da UC2</text><text fill="#000000" font-family="Verdana" font-size="13" lengthAdjust="spacing" textLength="159.7959" x="287.66" y="1365.9325">- Giocatore non bloccato</text><text fill="#000000" font-family="Verdana" font-size="13" lengthAdjust="spacing" textLength="4.1323" x="287.66" y="1381.0653">&#160;</text><text fill="#000000" font-family="Verdana" font-size="13" font-weight="bold" lengthAdjust="spacing" textLength="44.0654" x="287.66" y="1396.1981">Input:</text><text fill="#000000" font-family="Verdana" font-size="13" lengthAdjust="spacing" textLength="168.1875" x="287.66" y="1411.331">- Posizione attuale pedina</text><text fill="#000000" font-family="Verdana" font-size="13" lengthAdjust="spacing" textLength="134.9575" x="287.66" y="1426.4638">- Valore somma dadi</text><text fill="#000000" font-family="Verdana" font-size="13" lengthAdjust="spacing" textLength="4.1323" x="287.66" y="1441.5966">&#160;</text><text fill="#000000" font-family="Verdana" font-size="13" font-weight="bold" lengthAdjust="spacing" textLength="116.2891" x="287.66" y="1456.7294">Postcondizione:</text><text fill="#000000" font-family="Verdana" font-size="13" lengthAdjust="spacing" textLength="257.8735" x="287.66" y="1471.8622">- Pedina spostata nella nuova posizione</text><text fill="#000000" font-family="Verdana" font-size="13" lengthAdjust="spacing" textLength="152.5342" x="287.66" y="1486.995">- Interfaccia aggiornata</text></g><g class="entity" data-entity="GMN25" data-source-line="69" data-uid="ent0026" id="entity_GMN25"><path d="M248,447.43 L248,548.2269 A0,0 0 0 0 248,548.2269 L417.1,548.2269 L421.1,598.42 L425.1,548.2269 L594.1904,548.2269 A0,0 0 0 0 594.1904,548.2269 L594.1904,457.43 L584.1904,447.43 L248,447.43 A0,0 0 0 0 248,447.43" fill="#FFFFCC" style="stroke:#000000;stroke-width:1;"/><path d="M584.1904,447.43 L584.1904,457.43 L594.1904,457.43 L584.1904,447.43" fill="#FFFFCC" style="stroke:#000000;stroke-width:1;"/><text fill="#000000" font-family="Verdana" font-size="13" font-weight="bold" lengthAdjust="spacing" textLength="52.6538" x="254" y="464.4969">Logica:</text><text fill="#000000" font-family="Verdana" font-size="13" lengthAdjust="spacing" textLength="325.1904" x="254" y="479.6297">nuovaPosizione = posizioneAttuale + sommaDadi</text><text fill="#000000" font-family="Verdana" font-size="13" lengthAdjust="spacing" textLength="4.1323" x="254" y="494.7625">&#160;</text><text fill="#000000" font-family="Verdana" font-size="13" font-weight="bold" lengthAdjust="spacing" textLength="131.79" x="254" y="509.8953">Implementazione:</text><text fill="#000000" font-family="Verdana" font-size="13" lengthAdjust="spacing" textLength="205.499" x="254" y="525.0281">PartitaController.muoviPedina()</text><text fill="#000000" font-family="Verdana" font-size="13" lengthAdjust="spacing" textLength="131.7202" x="254" y="540.161">Pedina.muovi(passi)</text></g><g class="entity" data-entity="GMN28" data-source-line="78" data-uid="ent0029" id="entity_GMN28"><path d="M265.94,266.73 L265.94,412.9253 L576.2535,412.9253 L576.2535,276.73 L566.2535,266.73 L265.94,266.73" fill="#FFFFCC" style="stroke:#000000;stroke-width:1;"/><path d="M566.2535,266.73 L566.2535,276.73 L576.2535,276.73 L566.2535,266.73" fill="#FFFFCC" style="stroke:#000000;stroke-width:1;"/><text fill="#000000" font-family="Verdana" font-size="13" font-weight="bold" lengthAdjust="spacing" textLength="85.7124" x="271.94" y="283.7969">Condizione:</text><text fill="#000000" font-family="Verdana" font-size="13" lengthAdjust="spacing" textLength="156.9775" x="271.94" y="298.9297">Se nuovaPosizione &gt; 63</text><text fill="#000000" font-family="Verdana" font-size="13" lengthAdjust="spacing" textLength="4.1323" x="271.94" y="314.0625">&#160;</text><text fill="#000000" font-family="Verdana" font-size="13" font-weight="bold" lengthAdjust="spacing" textLength="120.6245" x="271.94" y="329.1953">Logica rimbalzo:</text><text fill="#000000" font-family="Verdana" font-size="13" lengthAdjust="spacing" textLength="289.3135" x="271.94" y="344.3281">posizioneFinale = 63 - (nuovaPosizione - 63)</text><text fill="#000000" font-family="Verdana" font-size="13" lengthAdjust="spacing" textLength="4.1323" x="271.94" y="359.461">&#160;</text><text fill="#000000" font-family="Verdana" font-size="13" font-weight="bold" lengthAdjust="spacing" textLength="66.8726" x="271.94" y="374.5938">Esempio:</text><text fill="#000000" font-family="Verdana" font-size="13" lengthAdjust="spacing" textLength="142.9238" x="271.94" y="389.7266">Pos 61 + dado 5 = 66</text><text fill="#000000" font-family="Verdana" font-size="13" lengthAdjust="spacing" textLength="128.1401" x="271.94" y="404.8594">&#8594; 63 - (66-63) = 60</text></g><g class="entity" data-entity="GMN31" data-source-line="90" data-uid="ent0032" id="entity_GMN31"><path d="M281.1,131.43 L281.1,232.2269 L561.0907,232.2269 L561.0907,141.43 L551.0907,131.43 L281.1,131.43" fill="#FFFFCC" style="stroke:#000000;stroke-width:1;"/><path d="M551.0907,131.43 L551.0907,141.43 L561.0907,141.43 L551.0907,131.43" fill="#FFFFCC" style="stroke:#000000;stroke-width:1;"/><text fill="#000000" font-family="Verdana" font-size="13" font-weight="bold" lengthAdjust="spacing" textLength="131.79" x="287.1" y="148.4969">Implementazione:</text><text fill="#000000" font-family="Verdana" font-size="13" lengthAdjust="spacing" textLength="258.9907" x="287.1" y="163.6297">Giocatore.setPosizione(nuovaPosizione)</text><text fill="#000000" font-family="Verdana" font-size="13" lengthAdjust="spacing" textLength="239.751" x="287.1" y="178.7625">Pedina.setPosizione(nuovaPosizione)</text><text fill="#000000" font-family="Verdana" font-size="13" lengthAdjust="spacing" textLength="4.1323" x="287.1" y="193.8953">&#160;</text><text fill="#000000" font-family="Verdana" font-size="13" font-weight="bold" lengthAdjust="spacing" textLength="55.5674" x="287.1" y="209.0281">Effetto:</text><text fill="#000000" font-family="Verdana" font-size="13" lengthAdjust="spacing" textLength="226.3193" x="287.1" y="224.161">Aggiorna stato interno del modello</text></g><g class="entity" data-entity="GMN34" data-source-line="99" data-uid="ent0035" id="entity_GMN34"><path d="M264.46,11 L264.46,96.6641 L577.7315,96.6641 L577.7315,21 L567.7315,11 L264.46,11" fill="#FFFFCC" style="stroke:#000000;stroke-width:1;"/><path d="M567.7315,11 L567.7315,21 L577.7315,21 L567.7315,11" fill="#FFFFCC" style="stroke:#000000;stroke-width:1;"/><text fill="#000000" font-family="Verdana" font-size="13" font-weight="bold" lengthAdjust="spacing" textLength="131.79" x="270.46" y="28.0669">Implementazione:</text><text fill="#000000" font-family="Verdana" font-size="13" lengthAdjust="spacing" textLength="207.416" x="270.46" y="43.1997">Tabellone.getCasella(posizione)</text><text fill="#000000" font-family="Verdana" font-size="13" lengthAdjust="spacing" textLength="4.1323" x="270.46" y="58.3325">&#160;</text><text fill="#000000" font-family="Verdana" font-size="13" font-weight="bold" lengthAdjust="spacing" textLength="56.4941" x="270.46" y="73.4653">Output:</text><text fill="#000000" font-family="Verdana" font-size="13" lengthAdjust="spacing" textLength="292.2715" x="270.46" y="88.5981">Oggetto Casella con eventuali effetti speciali</text></g><g class="entity" data-entity="GMN37" data-source-line="107" data-uid="ent0038" id="entity_GMN37"><path d="M760.19,930.43 L760.19,971.99 L506.98,964.64 L760.19,979.99 L760.19,1031.2269 A0,0 0 0 0 760.19,1031.2269 L977.4341,1031.2269 A0,0 0 0 0 977.4341,1031.2269 L977.4341,940.43 L967.4341,930.43 L760.19,930.43 A0,0 0 0 0 760.19,930.43" fill="#FFFFCC" style="stroke:#000000;stroke-width:1;"/><path d="M967.4341,930.43 L967.4341,940.43 L977.4341,940.43 L967.4341,930.43" fill="#FFFFCC" style="stroke:#000000;stroke-width:1;"/><text fill="#000000" font-family="Verdana" font-size="13" font-weight="bold" lengthAdjust="spacing" textLength="144.168" x="766.19" y="947.4969">Condizione vittoria:</text><text fill="#000000" font-family="Verdana" font-size="13" lengthAdjust="spacing" textLength="191.8008" x="766.19" y="962.6297">Posizione finale = 63 (esatto)</text><text fill="#000000" font-family="Verdana" font-size="13" lengthAdjust="spacing" textLength="4.1323" x="766.19" y="977.7625">&#160;</text><text fill="#000000" font-family="Verdana" font-size="13" font-weight="bold" lengthAdjust="spacing" textLength="54.2852" x="766.19" y="992.8953">Azione:</text><text fill="#000000" font-family="Verdana" font-size="13" lengthAdjust="spacing" textLength="170.5234" x="766.19" y="1008.0281">Se vinto &#8594; termina partita</text><text fill="#000000" font-family="Verdana" font-size="13" lengthAdjust="spacing" textLength="196.2441" x="766.19" y="1023.161">Se non vinto &#8594; continua gioco</text></g><!--link GC to UC3--><g class="link" data-entity-1="GC" data-entity-2="UC3" data-source-line="38" data-uid="lnk13" id="link_GC_UC3"><path d="M72.39,1339.83 C106.41,1282.98 170.5,1187.62 248,1128.83 C280.84,1103.93 317.955,1088.1085 352.665,1076.5985" fill="none" id="GC-to-UC3" style="stroke:#000000;stroke-width:1;"/><polygon fill="#000000" points="358.36,1074.71,348.5584,1073.7461,353.6141,1076.2838,351.0764,1081.3395,358.36,1074.71" style="stroke:#000000;stroke-width:1;"/></g><!--link UC3 to CalcolaNuovaPos--><g class="link" data-entity-1="UC3" data-entity-2="CalcolaNuovaPos" data-source-line="41" data-uid="lnk14" id="link_UC3_CalcolaNuovaPos"><path d="M335.07,1047.71 C303.98,1040 270.93,1026.49 248,1002.83 C158.88,910.84 118.57,839.82 173.94,724.33 C204.27,661.06 279.0941,637.9945 340.1141,629.0045" fill="none" id="UC3-to-CalcolaNuovaPos" style="stroke:#000000;stroke-width:1;stroke-dasharray:7.0,7.0;"/><polygon fill="#000000" points="346.05,628.13,336.5631,625.4845,341.1034,628.8588,337.7291,633.3991,346.05,628.13" style="stroke:#000000;stroke-width:1;"/><text fill="#000000" font-family="Verdana" font-size="13" lengthAdjust="spacing" textLength="63.0068" x="132" y="737.3969">&#171;include&#187;</text></g><!--link UC3 to AggiornaPosizione--><g class="link" data-entity-1="UC3" data-entity-2="AggiornaPosizione" data-source-line="42" data-uid="lnk15" id="link_UC3_AggiornaPosizione"><path d="M333.51,1067.27 C278.79,1067.85 211.77,1057.76 173.94,1012.33 C159.83,995.39 59.72,927.24 248,748.83 C272.7,725.43 302.2,715.3039 334.58,710.3139" fill="none" id="UC3-to-AggiornaPosizione" style="stroke:#000000;stroke-width:1;stroke-dasharray:7.0,7.0;"/><polygon fill="#000000" points="340.51,709.4,331.0058,706.8175,335.5683,710.1615,332.2242,714.7241,340.51,709.4" style="stroke:#000000;stroke-width:1;"/><text fill="#000000" font-family="Verdana" font-size="13" lengthAdjust="spacing" textLength="63.0068" x="132" y="1008.3969">&#171;include&#187;</text></g><!--link UC3 to IdentificaCasellaDest--><g class="link" data-entity-1="UC3" data-entity-2="IdentificaCasellaDest" data-source-line="43" data-uid="lnk16" id="link_UC3_IdentificaCasellaDest"><path d="M340.28,1045.62 C308.8,1037.63 274.1,1024.46 248,1002.83 C189.38,954.23 126.47,907.87 173.94,848.33 C210.43,802.55 269.7257,789.3516 324.0357,786.9816" fill="none" id="UC3-to-IdentificaCasellaDest" style="stroke:#000000;stroke-width:1;stroke-dasharray:7.0,7.0;"/><polygon fill="#000000" points="330.03,786.72,320.8642,783.1162,325.0348,786.938,321.2129,791.1086,330.03,786.72" style="stroke:#000000;stroke-width:1;"/><text fill="#000000" font-family="Verdana" font-size="13" lengthAdjust="spacing" textLength="63.0068" x="132" y="861.3969">&#171;include&#187;</text></g><!--link UC3 to ComunicaNuovaPos--><g class="link" data-entity-1="UC3" data-entity-2="ComunicaNuovaPos" data-source-line="44" data-uid="lnk17" id="link_UC3_ComunicaNuovaPos"><path d="M341.54,1045.28 C250.59,1027.58 120.73,989.99 173.94,925.33 C214.57,875.95 283.4422,866.9972 340.1722,868.5372" fill="none" id="UC3-to-ComunicaNuovaPos" style="stroke:#000000;stroke-width:1;stroke-dasharray:7.0,7.0;"/><polygon fill="#000000" points="346.17,868.7,337.2819,864.4572,341.1718,868.5643,337.0648,872.4543,346.17,868.7" style="stroke:#000000;stroke-width:1;"/><text fill="#000000" font-family="Verdana" font-size="13" lengthAdjust="spacing" textLength="63.0068" x="132" y="938.3969">&#171;include&#187;</text></g><!--link UC3 to VerificaVittoria--><g class="link" data-entity-1="UC3" data-entity-2="VerificaVittoria" data-source-line="45" data-uid="lnk18" id="link_UC3_VerificaVittoria"><path d="M421.1,1035.82 C421.1,1020.73 421.1,1006.7 421.1,991.14" fill="none" id="UC3-to-VerificaVittoria" style="stroke:#000000;stroke-width:1;stroke-dasharray:7.0,7.0;"/><polygon fill="#000000" points="421.1,985.14,417.1,994.14,421.1,990.14,425.1,994.14,421.1,985.14" style="stroke:#000000;stroke-width:1;"/><text fill="#000000" font-family="Verdana" font-size="13" lengthAdjust="spacing" textLength="63.0068" x="378.1" y="1015.0869">&#171;include&#187;</text></g><!--link GestisciRimbalzo to CalcolaNuovaPos--><g class="link" data-entity-1="GestisciRimbalzo" data-entity-2="CalcolaNuovaPos" data-source-line="48" data-uid="lnk19" id="link_GestisciRimbalzo_CalcolaNuovaPos"><path d="M340.94,1250.26 C274.75,1239.02 186.31,1211.12 151.94,1141.83 C134.53,1106.74 33.15,885.22 248,664.83 C272.94,639.26 304.6606,628.9873 338.4906,624.5673" fill="none" id="GestisciRimbalzo-to-CalcolaNuovaPos" style="stroke:#000000;stroke-width:1;stroke-dasharray:7.0,7.0;"/><polygon fill="#000000" points="344.44,623.79,334.9976,620.9897,339.4821,624.4378,336.0341,628.9223,344.44,623.79" style="stroke:#000000;stroke-width:1;"/><text fill="#000000" font-family="Verdana" font-size="13" lengthAdjust="spacing" textLength="61.1851" x="132.9373" y="1122.8969">&#171;extend&#187;</text><text fill="#000000" font-family="Verdana" font-size="13" lengthAdjust="spacing" textLength="107.0596" x="110" y="1138.0297">[posizione &gt; 63]</text></g><!--link GestisciEffetti to UC3--><g class="link" data-entity-1="GestisciEffetti" data-entity-2="UC3" data-source-line="49" data-uid="lnk20" id="link_GestisciEffetti_UC3"><path d="M421.1,1145.96 C421.1,1125.99 421.1,1104.67 421.1,1085.76" fill="none" id="GestisciEffetti-to-UC3" style="stroke:#000000;stroke-width:1;stroke-dasharray:7.0,7.0;"/><polygon fill="#000000" points="421.1,1079.76,417.1,1088.76,421.1,1084.76,425.1,1088.76,421.1,1079.76" style="stroke:#000000;stroke-width:1;"/><text fill="#000000" font-family="Verdana" font-size="13" lengthAdjust="spacing" textLength="61.1851" x="371.862" y="1109.9369">&#171;extend&#187;</text><text fill="#000000" font-family="Verdana" font-size="13" lengthAdjust="spacing" textLength="112.709" x="346.1" y="1125.0697">[casella speciale]</text></g><!--link ComunicaNuovaPos to AG_Altri--><g class="link" data-entity-1="ComunicaNuovaPos" data-entity-2="AG_Altri" data-source-line="52" data-uid="lnk21" id="link_ComunicaNuovaPos_AG_Altri"><path d="M499.74,873.35 C592.64,869.18 739.196,862.5989 815.426,859.1789" fill="none" id="ComunicaNuovaPos-to-AG_Altri" style="stroke:#000000;stroke-width:1;stroke-dasharray:7.0,7.0;"/><polygon fill="#000000" points="821.42,858.91,812.2498,855.3174,816.425,859.1341,812.6083,863.3094,821.42,858.91" style="stroke:#000000;stroke-width:1;"/><text fill="#000000" font-family="Verdana" font-size="13" lengthAdjust="spacing" textLength="104.6094" x="625.19" y="844.8969">(aggiornamento</text><text fill="#000000" font-family="Verdana" font-size="13" lengthAdjust="spacing" textLength="50.9653" x="652.012" y="860.0297">visuale)</text></g><!--link GestisciRimbalzo to GMN28--><g class="link" data-entity-1="GestisciRimbalzo" data-entity-2="GMN28" data-source-line="78" data-uid="lnk30" id="link_GestisciRimbalzo_GMN28"><path d="M338.99,1262.98 C280.16,1261.71 204.37,1248.91 163.5,1197.33 C60,1066.7 71.09,586.03 163.5,447.33 C187.35,411.54 225.62,387.64 265.45,371.7" fill="none" id="GestisciRimbalzo-GMN28" style="stroke:#000000;stroke-width:1;stroke-dasharray:7.0,7.0;"/></g><!--link AggiornaPosizione to GMN31--><g class="link" data-entity-1="AggiornaPosizione" data-entity-2="GMN31" data-source-line="90" data-uid="lnk33" id="link_AggiornaPosizione_GMN31"><path d="M342.09,712.36 C282.87,711.71 205.15,699.69 163.5,647.33 C58.1,514.8 64.17,403.46 163.5,266.33 C190.98,228.4 236.01,207.19 280.8,195.44" fill="none" id="AggiornaPosizione-GMN31" style="stroke:#000000;stroke-width:1;stroke-dasharray:7.0,7.0;"/></g><!--link IdentificaCasellaDest to GMN34--><g class="link" data-entity-1="IdentificaCasellaDest" data-entity-2="GMN34" data-source-line="99" data-uid="lnk36" id="link_IdentificaCasellaDest_GMN34"><path d="M329.94,796.69 C272.58,794.31 202.3,780.3 163.5,731.33 C80.7,626.82 83.96,238.33 163.5,131.33 C187.74,98.72 225.26,79.33 264.23,67.93" fill="none" id="IdentificaCasellaDest-GMN34" style="stroke:#000000;stroke-width:1;stroke-dasharray:7.0,7.0;"/></g><!--SRC=[XLRRRXit47tVhs2LXqek9AGr8XH6Aa3PM8A1DZ6SrdseWeBQ7Qs9SCa5oLNR57dj1_GJ-oMTuN9NUqtqO5l3cSCvXuT3V-MU80TMI2vKP3y8LN33SrPQIBW5zdV4yFEA9nyoeqkLnbfgmtvz4Wwg5MrIC5NqbSGq7zqQe_ze1p-re7dYC3uE_EnslRlUxIQWsoW64iTL9gTQVBPxllj-4ecYEwtSE_SN8XorJ3lWIhjfNFp4yMI7aOIJOqup8x8dnr91ZGgjegZYFTiBdN3y2mugqSQ0SZ1ZtB9zN6TifJE2PI5F-DNj_dSVZg8ByTazDquupeHY26NrBFHS7zulyJNLpl3t3Vkfr6Smm2Hd1QH2yLadD-OoqPA_mIn-hwsl2p4iKXG-g49RyH79GBTs3zO9cuW7aH-v_AXziGzYgGd1Wz9801XLI6nYVTq5sMR8s2ZQlDh3ezHHaglPVPJ0NOfIYfD8U5pjy1eRy1YNbSls1vKAbbABYeymYdLUAYpeoX62r8iNX7r1ZzlJ2PmJ7JcWYk7X-qQ0sG8ImQNeGZo2yHq_2aSUu1wZ3bRUGGQL6kUGCoFxVSqUGF8Wan4g4GMN4ErZjbnko17j587MIMIP0fjRo0jgpq9MukLUH6IUrMRWYnlsycKescpgfE7PZQQD7z5ewk00HhC6AdMpEapXJmSgPVD6EDHy4GsiEq6vgjvi3kgtYmqtQEBtKV-qLrxcVbLj-t3Sy9wwUwChEHZF9DgaU- -ZWGOhaZeC0iIVyo1xZhBY_JeBMoBo8ehy_Ae6a3xHP25hNLtTu-neR7DpTUN3I_Q0TTBXdYpbT2k4BL2meq1pfXovV1Vocic5yr6nezG9VVMBOOCxLPJk0jowoivHQ-7YXkL7BWdCwZpdVkis5DQwiMRlFGBAYEiSPv_oglQkOyYzmzbgJZn9wFu4hHoFo0QaKD3fgD4yEGdLE_ZGoOywmqEeEr1XCH3xuRBfDd3yfcBqkaVeBYyaq4dn3gCmmsDyZ8p6UM1MEUuWAfhpHPNZlrGByu9RYyQT9D5tTDW-7cZv3lfaoC_jbYlcpGIl2nl6E-nAaWRhQrHxtaDROdZHXhkb6ICQ67Bq-bkK2uzUinS4i_OB__tpRq1ShvU8GIlFfmaFXi_d1MzSlBBWcffUyntTlvXNy_C3eE5NzyMilrk2pAZmZe5akSQVKazp6fsKd-VrCpyIfe9L1YvKpOlHHj-MhdLFtsOPjSr23VuheHYS4H_TBEhtgdcc-ZqtKwO_YmU-QzwfbW72ogbbf3bOd1Qwq_2sRzmpggczKL3Kd0P2KTsZnjb8ufA4bF2XBxaVhXVP_mS0]--></g></svg>