<svg xmlns="http://www.w3.org/2000/svg" xmlns:xlink="http://www.w3.org/1999/xlink" contentStyleType="text/css" data-diagram-type="DESCRIPTION" height="1594px" preserveAspectRatio="none" style="width:981px;height:1594px;background:#FFFFFF;" version="1.1" viewBox="0 0 981 1594" width="981px" zoomAndPan="magnify"><defs/><g><!--cluster Partita in corso--><g class="cluster" data-entity="Partita in corso" data-source-line="26" data-uid="ent0004" id="cluster_Partita in corso"><rect fill="#F0F8FF" height="691" rx="2.5" ry="2.5" style="stroke:#000000;stroke-width:1;" width="211.88" x="335.16" y="671.53"/><text fill="#000000" font-family="Verdana" font-size="14" font-weight="bold" lengthAdjust="spacing" textLength="121.5293" x="380.3354" y="686.5251">Partita in corso</text></g><!--entity UC4--><g class="entity" data-entity="UC4" data-source-line="27" data-uid="ent0005" id="entity_UC4"><ellipse cx="441.1002" cy="1001.5257" fill="#FFFFFF" rx="77.7502" ry="26.0357" style="stroke:#000000;stroke-width:1;"/><text fill="#000000" font-family="Verdana" font-size="14" lengthAdjust="spacing" textLength="105.5537" x="388.3233" y="998.0094">UC4: Gestire le</text><text fill="#000000" font-family="Verdana" font-size="14" lengthAdjust="spacing" textLength="105.7656" x="388.2174" y="1014.3063">caselle speciali</text></g><!--entity VerificaCasella63--><g class="entity" data-entity="VerificaCasella63" data-source-line="28" data-uid="ent0006" id="entity_VerificaCasella63"><ellipse cx="441.1015" cy="815.525" fill="#FFFFFF" rx="64.3315" ry="25.805" style="stroke:#000000;stroke-width:1;"/><text fill="#000000" font-family="Verdana" font-size="14" lengthAdjust="spacing" textLength="87.6572" x="397.2729" y="812.3694">Verificare se</text><text fill="#000000" font-family="Verdana" font-size="14" lengthAdjust="spacing" textLength="83.8701" x="399.1664" y="828.6663">casella &#232; 63</text></g><!--entity AnalizzaCasella--><g class="entity" data-entity="AnalizzaCasella" data-source-line="29" data-uid="ent0007" id="entity_AnalizzaCasella"><ellipse cx="441.097" cy="730.5285" fill="#FFFFFF" rx="69.577" ry="23.9185" style="stroke:#000000;stroke-width:1;"/><text fill="#000000" font-family="Verdana" font-size="14" lengthAdjust="spacing" textLength="103.7354" x="389.2293" y="730.2106">Analizzare tipo</text><text fill="#000000" font-family="Verdana" font-size="14" lengthAdjust="spacing" textLength="48.542" x="416.826" y="746.5075">casella</text></g><!--entity ApplicaEffettoBase--><g class="entity" data-entity="ApplicaEffettoBase" data-source-line="30" data-uid="ent0008" id="entity_ApplicaEffettoBase"><ellipse cx="441.1022" cy="1118.5293" fill="#FFFFFF" rx="81.0822" ry="24.7793" style="stroke:#000000;stroke-width:1;"/><text fill="#000000" font-family="Verdana" font-size="14" lengthAdjust="spacing" textLength="116.8535" x="382.6754" y="1116.878">Applicare effetto</text><text fill="#000000" font-family="Verdana" font-size="14" lengthAdjust="spacing" textLength="86.3652" x="397.9196" y="1133.1749">base casella</text></g><!--entity ApplicaEffettoAvanzato--><g class="entity" data-entity="ApplicaEffettoAvanzato" data-source-line="31" data-uid="ent0009" id="entity_ApplicaEffettoAvanzato"><ellipse cx="441.0956" cy="1235.5334" fill="#FFFFFF" rx="83.7856" ry="25.5334" style="stroke:#000000;stroke-width:1;"/><text fill="#000000" font-family="Verdana" font-size="14" lengthAdjust="spacing" textLength="116.8535" x="382.6689" y="1232.7686">Applicare effetto</text><text fill="#000000" font-family="Verdana" font-size="14" lengthAdjust="spacing" textLength="105.7861" x="388.2025" y="1249.0655">con logica dadi</text></g><!--entity ComunicaEffetto--><g class="entity" data-entity="ComunicaEffetto" data-source-line="32" data-uid="ent0010" id="entity_ComunicaEffetto"><ellipse cx="441.1032" cy="900.5288" fill="#FFFFFF" rx="89.9432" ry="23.9388" style="stroke:#000000;stroke-width:1;"/><text fill="#000000" font-family="Verdana" font-size="14" lengthAdjust="spacing" textLength="135.3379" x="373.4343" y="900.1786">Comunicare effetto</text><text fill="#000000" font-family="Verdana" font-size="14" lengthAdjust="spacing" textLength="64.4629" x="408.8718" y="916.4755">applicato</text></g><!--entity ProcediVittoria--><g class="entity" data-entity="ProcediVittoria" data-source-line="33" data-uid="ent0011" id="entity_ProcediVittoria"><ellipse cx="441.0975" cy="1321.5295" fill="#FFFFFF" rx="74.5675" ry="24.9995" style="stroke:#000000;stroke-width:1;"/><text fill="#000000" font-family="Verdana" font-size="14" lengthAdjust="spacing" textLength="83.9727" x="399.1111" y="1316.5106">Procedere a</text><text fill="#000000" font-family="Verdana" font-size="14" lengthAdjust="spacing" textLength="106.0322" x="388.0814" y="1332.8074">verifica vittoria</text></g><!--entity GC--><g class="entity" data-entity="GC" data-source-line="23" data-uid="ent0002" id="entity_GC"><ellipse cx="76.9087" cy="1333.88" fill="#E6F3FF" rx="8" ry="8" style="stroke:#000000;stroke-width:1;"/><path d="M76.9087,1341.88 L76.9087,1368.88 M63.9087,1349.88 L89.9087,1349.88 M76.9087,1368.88 L63.9087,1383.88 M76.9087,1368.88 L89.9087,1383.88" fill="none" style="stroke:#000000;stroke-width:1;"/><text fill="#000000" font-family="Verdana" font-size="14" lengthAdjust="spacing" textLength="131.8174" x="11" y="1398.8751">Giocatore corrente</text></g><!--entity AG_Altri--><g class="entity" data-entity="AG_Altri" data-source-line="24" data-uid="ent0003" id="entity_AG_Altri"><ellipse cx="871.4451" cy="979.88" fill="#E6F3FF" rx="8" ry="8" style="stroke:#000000;stroke-width:1;"/><path d="M871.4451,987.88 L871.4451,1014.88 M858.4451,995.88 L884.4451,995.88 M871.4451,1014.88 L858.4451,1029.88 M871.4451,1014.88 L884.4451,1029.88" fill="none" style="stroke:#000000;stroke-width:1;"/><text fill="#000000" font-family="Verdana" font-size="14" lengthAdjust="spacing" textLength="94.3701" x="824.26" y="1044.8751">Altri giocatori</text></g><g class="entity" data-entity="GMN21" data-source-line="54" data-uid="ent0022" id="entity_GMN21"><path d="M316.53,1381.16 L316.53,1439.11 L143.08,1385.3 L316.53,1447.11 L316.53,1587.8866 A0,0 0 0 0 316.53,1587.8866 L565.6775,1587.8866 A0,0 0 0 0 565.6775,1587.8866 L565.6775,1391.16 L555.6775,1381.16 L316.53,1381.16 A0,0 0 0 0 316.53,1381.16" fill="#FFFFCC" style="stroke:#000000;stroke-width:1;"/><path d="M555.6775,1381.16 L555.6775,1391.16 L565.6775,1391.16 L555.6775,1381.16" fill="#FFFFCC" style="stroke:#000000;stroke-width:1;"/><text fill="#000000" font-family="Verdana" font-size="13" font-weight="bold" lengthAdjust="spacing" textLength="108.6338" x="322.53" y="1398.2269">Precondizione:</text><text fill="#000000" font-family="Verdana" font-size="13" lengthAdjust="spacing" textLength="228.1475" x="322.53" y="1413.3597">- Giocatore ha mosso pedina (UC3)</text><text fill="#000000" font-family="Verdana" font-size="13" lengthAdjust="spacing" textLength="194.1304" x="322.53" y="1428.4925">- Posizione finale determinata</text><text fill="#000000" font-family="Verdana" font-size="13" lengthAdjust="spacing" textLength="4.1323" x="322.53" y="1443.6253">&#160;</text><text fill="#000000" font-family="Verdana" font-size="13" font-weight="bold" lengthAdjust="spacing" textLength="129.6636" x="322.53" y="1458.7581">Flusso principale:</text><text fill="#000000" font-family="Verdana" font-size="13" lengthAdjust="spacing" textLength="227.2524" x="322.53" y="1473.891">1. Verifica se casella &#232; 63 (vittoria)</text><text fill="#000000" font-family="Verdana" font-size="13" lengthAdjust="spacing" textLength="221.5522" x="322.53" y="1489.0238">2. Se non 63, analizza tipo casella</text><text fill="#000000" font-family="Verdana" font-size="13" lengthAdjust="spacing" textLength="171.9453" x="322.53" y="1504.1566">3. Applica eventuali effetti</text><text fill="#000000" font-family="Verdana" font-size="13" lengthAdjust="spacing" textLength="139.2612" x="322.53" y="1519.2894">4. Comunica risultato</text><text fill="#000000" font-family="Verdana" font-size="13" lengthAdjust="spacing" textLength="4.1323" x="322.53" y="1534.4222">&#160;</text><text fill="#000000" font-family="Verdana" font-size="13" font-weight="bold" lengthAdjust="spacing" textLength="116.2891" x="322.53" y="1549.555">Postcondizione:</text><text fill="#000000" font-family="Verdana" font-size="13" lengthAdjust="spacing" textLength="156.8506" x="322.53" y="1564.6878">- Effetti casella applicati</text><text fill="#000000" font-family="Verdana" font-size="13" lengthAdjust="spacing" textLength="183.4155" x="322.53" y="1579.8206">- Stato giocatore aggiornato</text></g><g class="entity" data-entity="GMN24" data-source-line="70" data-uid="ent0025" id="entity_GMN24"><path d="M327.52,509.43 L327.52,655.6253 L554.6855,655.6253 L554.6855,519.43 L544.6855,509.43 L327.52,509.43" fill="#FFFFCC" style="stroke:#000000;stroke-width:1;"/><path d="M544.6855,509.43 L544.6855,519.43 L554.6855,519.43 L544.6855,509.43" fill="#FFFFCC" style="stroke:#000000;stroke-width:1;"/><text fill="#000000" font-family="Verdana" font-size="13" font-weight="bold" lengthAdjust="spacing" textLength="150.3062" x="333.52" y="526.4969">Condizione speciale:</text><text fill="#000000" font-family="Verdana" font-size="13" lengthAdjust="spacing" textLength="197.0566" x="333.52" y="541.6297">Se posizione = 63 &#8594; VITTORIA</text><text fill="#000000" font-family="Verdana" font-size="13" lengthAdjust="spacing" textLength="4.1323" x="333.52" y="556.7625">&#160;</text><text fill="#000000" font-family="Verdana" font-size="13" font-weight="bold" lengthAdjust="spacing" textLength="131.79" x="333.52" y="571.8953">Implementazione:</text><text fill="#000000" font-family="Verdana" font-size="13" lengthAdjust="spacing" textLength="206.1655" x="333.52" y="587.0281">Giocatore.getPosizione() == 63</text><text fill="#000000" font-family="Verdana" font-size="13" lengthAdjust="spacing" textLength="4.1323" x="333.52" y="602.161">&#160;</text><text fill="#000000" font-family="Verdana" font-size="13" font-weight="bold" lengthAdjust="spacing" textLength="71.2461" x="333.52" y="617.2938">Risultato:</text><text fill="#000000" font-family="Verdana" font-size="13" lengthAdjust="spacing" textLength="195.0635" x="333.52" y="632.4266">Se vero &#8594; salta analisi casella</text><text fill="#000000" font-family="Verdana" font-size="13" lengthAdjust="spacing" textLength="185.123" x="333.52" y="647.5594">Procede direttamente a UC6</text></g><g class="entity" data-entity="GMN27" data-source-line="82" data-uid="ent0028" id="entity_GMN27"><path d="M316.74,343 L316.74,474.0625 L565.4495,474.0625 L565.4495,353 L555.4495,343 L316.74,343" fill="#FFFFCC" style="stroke:#000000;stroke-width:1;"/><path d="M555.4495,343 L555.4495,353 L565.4495,353 L555.4495,343" fill="#FFFFCC" style="stroke:#000000;stroke-width:1;"/><text fill="#000000" font-family="Verdana" font-size="13" font-weight="bold" lengthAdjust="spacing" textLength="131.79" x="322.74" y="360.0669">Implementazione:</text><text fill="#000000" font-family="Verdana" font-size="13" lengthAdjust="spacing" textLength="207.416" x="322.74" y="375.1997">Tabellone.getCasella(posizione)</text><text fill="#000000" font-family="Verdana" font-size="13" lengthAdjust="spacing" textLength="126.5024" x="322.74" y="390.3325">Casella.isSpeciale()</text><text fill="#000000" font-family="Verdana" font-size="13" lengthAdjust="spacing" textLength="153.8989" x="322.74" y="405.4653">Casella.getTipoEffetto()</text><text fill="#000000" font-family="Verdana" font-size="13" lengthAdjust="spacing" textLength="4.1323" x="322.74" y="420.5981">&#160;</text><text fill="#000000" font-family="Verdana" font-size="13" font-weight="bold" lengthAdjust="spacing" textLength="56.4941" x="322.74" y="435.731">Output:</text><text fill="#000000" font-family="Verdana" font-size="13" lengthAdjust="spacing" textLength="159.8213" x="322.74" y="450.8638">Tipo effetto da applicare</text><text fill="#000000" font-family="Verdana" font-size="13" lengthAdjust="spacing" textLength="227.7095" x="322.74" y="465.9966">(NESSUNO, RILANCIA, PONTE, etc.)</text></g><g class="entity" data-entity="GMN30" data-source-line="93" data-uid="ent0031" id="entity_GMN30"><path d="M324.14,177 L324.14,308.0625 L558.0658,308.0625 L558.0658,187 L548.0658,177 L324.14,177" fill="#FFFFCC" style="stroke:#000000;stroke-width:1;"/><path d="M548.0658,177 L548.0658,187 L558.0658,187 L548.0658,177" fill="#FFFFCC" style="stroke:#000000;stroke-width:1;"/><text fill="#000000" font-family="Verdana" font-size="13" font-weight="bold" lengthAdjust="spacing" textLength="90.251" x="330.14" y="194.0669">Effetti base:</text><text fill="#000000" font-family="Verdana" font-size="13" lengthAdjust="spacing" textLength="211.0088" x="330.14" y="209.1997">- FERMA_UN_TURNO/DUE_TURNI</text><text fill="#000000" font-family="Verdana" font-size="13" lengthAdjust="spacing" textLength="178.2041" x="330.14" y="224.3325">- PONTE, POZZO, PRIGIONE</text><text fill="#000000" font-family="Verdana" font-size="13" lengthAdjust="spacing" textLength="115.7178" x="330.14" y="239.4653">- RITORNO_INIZIO</text><text fill="#000000" font-family="Verdana" font-size="13" lengthAdjust="spacing" textLength="4.1323" x="330.14" y="254.5981">&#160;</text><text fill="#000000" font-family="Verdana" font-size="13" font-weight="bold" lengthAdjust="spacing" textLength="131.79" x="330.14" y="269.731">Implementazione:</text><text fill="#000000" font-family="Verdana" font-size="13" lengthAdjust="spacing" textLength="212.9258" x="330.14" y="284.8638">Casella.applicaEffetto(giocatore)</text><text fill="#000000" font-family="Verdana" font-size="13" lengthAdjust="spacing" textLength="204.4644" x="330.14" y="299.9966">Modifica: posizione, turniSaltati</text></g><g class="entity" data-entity="GMN33" data-source-line="104" data-uid="ent0034" id="entity_GMN33"><path d="M279.82,11 L279.82,142.0625 L602.3845,142.0625 L602.3845,21 L592.3845,11 L279.82,11" fill="#FFFFCC" style="stroke:#000000;stroke-width:1;"/><path d="M592.3845,11 L592.3845,21 L602.3845,21 L592.3845,11" fill="#FFFFCC" style="stroke:#000000;stroke-width:1;"/><text fill="#000000" font-family="Verdana" font-size="13" font-weight="bold" lengthAdjust="spacing" textLength="128.3115" x="285.82" y="28.0669">Effetti complessi:</text><text fill="#000000" font-family="Verdana" font-size="13" lengthAdjust="spacing" textLength="191.001" x="285.82" y="43.1997">- RILANCIA_TORNA_INDIETRO</text><text fill="#000000" font-family="Verdana" font-size="13" lengthAdjust="spacing" textLength="173.4116" x="285.82" y="58.3325">- RADDOPPIA_MOVIMENTO</text><text fill="#000000" font-family="Verdana" font-size="13" lengthAdjust="spacing" textLength="198.3198" x="285.82" y="73.4653">- VOLA_AVANTI con nuovi dadi</text><text fill="#000000" font-family="Verdana" font-size="13" lengthAdjust="spacing" textLength="4.1323" x="285.82" y="88.5981">&#160;</text><text fill="#000000" font-family="Verdana" font-size="13" font-weight="bold" lengthAdjust="spacing" textLength="131.79" x="285.82" y="103.731">Implementazione:</text><text fill="#000000" font-family="Verdana" font-size="13" lengthAdjust="spacing" textLength="301.5645" x="285.82" y="118.8638">PartitaController.applicaEffettoCasellaEsteso()</text><text fill="#000000" font-family="Verdana" font-size="13" lengthAdjust="spacing" textLength="162.6841" x="285.82" y="133.9966">Richiede nuovi lanci dadi</text></g><g class="entity" data-entity="GMN36" data-source-line="115" data-uid="ent0037" id="entity_GMN36"><path d="M768.38,1263.56 L768.38,1317.53 L515.73,1321.53 L768.38,1325.53 L768.38,1379.4897 A0,0 0 0 0 768.38,1379.4897 L974.503,1379.4897 A0,0 0 0 0 974.503,1379.4897 L974.503,1273.56 L964.503,1263.56 L768.38,1263.56 A0,0 0 0 0 768.38,1263.56" fill="#FFFFCC" style="stroke:#000000;stroke-width:1;"/><path d="M964.503,1263.56 L964.503,1273.56 L974.503,1273.56 L964.503,1263.56" fill="#FFFFCC" style="stroke:#000000;stroke-width:1;"/><text fill="#000000" font-family="Verdana" font-size="13" font-weight="bold" lengthAdjust="spacing" textLength="85.7124" x="774.38" y="1280.6269">Condizione:</text><text fill="#000000" font-family="Verdana" font-size="13" lengthAdjust="spacing" textLength="122.8398" x="774.38" y="1295.7597">Casella finale = 63</text><text fill="#000000" font-family="Verdana" font-size="13" lengthAdjust="spacing" textLength="4.1323" x="774.38" y="1310.8925">&#160;</text><text fill="#000000" font-family="Verdana" font-size="13" font-weight="bold" lengthAdjust="spacing" textLength="54.2852" x="774.38" y="1326.0253">Azione:</text><text fill="#000000" font-family="Verdana" font-size="13" lengthAdjust="spacing" textLength="156.6284" x="774.38" y="1341.1581">Salta tutti gli altri effetti</text><text fill="#000000" font-family="Verdana" font-size="13" lengthAdjust="spacing" textLength="185.123" x="774.38" y="1356.291">Procede direttamente a UC6</text><text fill="#000000" font-family="Verdana" font-size="13" lengthAdjust="spacing" textLength="153.2451" x="774.38" y="1371.4238">(Determinare vincitore)</text></g><!--link GC to UC4--><g class="link" data-entity-1="GC" data-entity-2="UC4" data-source-line="37" data-uid="lnk12" id="link_GC_UC4"><path d="M95.3,1324.62 C124.67,1263.2 189.81,1143.85 279.82,1076.53 C312.17,1052.33 347.9993,1035.4035 380.6193,1022.5235" fill="none" id="GC-to-UC4" style="stroke:#000000;stroke-width:1;"/><polygon fill="#000000" points="386.2,1020.32,376.3599,1019.9048,381.5494,1022.1563,379.298,1027.3458,386.2,1020.32" style="stroke:#000000;stroke-width:1;"/></g><!--link UC4 to VerificaCasella63--><g class="link" data-entity-1="UC4" data-entity-2="VerificaCasella63" data-source-line="40" data-uid="lnk13" id="link_UC4_VerificaCasella63"><path d="M363.38,998.95 C312.83,992.74 250.34,975.51 217.11,930.03 C171.13,867.08 292.2444,837.1922 373.3744,824.2922" fill="none" id="UC4-to-VerificaCasella63" style="stroke:#000000;stroke-width:1;stroke-dasharray:7.0,7.0;"/><polygon fill="#000000" points="379.3,823.35,369.7835,820.8129,374.362,824.1352,371.0398,828.7137,379.3,823.35" style="stroke:#000000;stroke-width:1;"/><text fill="#000000" font-family="Verdana" font-size="13" lengthAdjust="spacing" textLength="63.0068" x="179.82" y="926.0969">&#171;include&#187;</text></g><!--link UC4 to AnalizzaCasella--><g class="link" data-entity-1="UC4" data-entity-2="AnalizzaCasella" data-source-line="41" data-uid="lnk14" id="link_UC4_AnalizzaCasella"><path d="M373.52,988.4 C342.09,979.5 305.97,964.94 279.82,941.53 C228.57,895.64 179.49,857.61 217.11,800.03 C249.74,750.09 312.3986,735.0218 365.1386,730.8618" fill="none" id="UC4-to-AnalizzaCasella" style="stroke:#000000;stroke-width:1;stroke-dasharray:7.0,7.0;"/><polygon fill="#000000" points="371.12,730.39,361.8333,727.1101,366.1355,730.7832,362.4624,735.0853,371.12,730.39" style="stroke:#000000;stroke-width:1;"/><text fill="#000000" font-family="Verdana" font-size="13" lengthAdjust="spacing" textLength="63.0068" x="179.82" y="813.0969">&#171;include&#187;</text></g><!--link UC4 to ComunicaEffetto--><g class="link" data-entity-1="UC4" data-entity-2="ComunicaEffetto" data-source-line="42" data-uid="lnk15" id="link_UC4_ComunicaEffetto"><path d="M441.1,975.25 C441.1,959.71 441.1,946.14 441.1,930.93" fill="none" id="UC4-to-ComunicaEffetto" style="stroke:#000000;stroke-width:1;stroke-dasharray:7.0,7.0;"/><polygon fill="#000000" points="441.1,924.93,437.1,933.93,441.1,929.93,445.1,933.93,441.1,924.93" style="stroke:#000000;stroke-width:1;"/><text fill="#000000" font-family="Verdana" font-size="13" lengthAdjust="spacing" textLength="63.0068" x="398.1" y="954.5469">&#171;include&#187;</text></g><!--link ApplicaEffettoBase to UC4--><g class="link" data-entity-1="ApplicaEffettoBase" data-entity-2="UC4" data-source-line="45" data-uid="lnk16" id="link_ApplicaEffettoBase_UC4"><path d="M441.1,1093.43 C441.1,1074.09 441.1,1053.43 441.1,1033.8" fill="none" id="ApplicaEffettoBase-to-UC4" style="stroke:#000000;stroke-width:1;stroke-dasharray:7.0,7.0;"/><polygon fill="#000000" points="441.1,1027.8,437.1,1036.8,441.1,1032.8,445.1,1036.8,441.1,1027.8" style="stroke:#000000;stroke-width:1;"/><text fill="#000000" font-family="Verdana" font-size="13" lengthAdjust="spacing" textLength="61.1851" x="391.862" y="1057.7169">&#171;extend&#187;</text><text fill="#000000" font-family="Verdana" font-size="13" lengthAdjust="spacing" textLength="112.709" x="366.1" y="1072.8497">[casella speciale]</text></g><!--link ApplicaEffettoAvanzato to ApplicaEffettoBase--><g class="link" data-entity-1="ApplicaEffettoAvanzato" data-entity-2="ApplicaEffettoBase" data-source-line="46" data-uid="lnk17" id="link_ApplicaEffettoAvanzato_ApplicaEffettoBase"><path d="M441.1,1209.56 C441.1,1189.9 441.1,1169.06 441.1,1149.62" fill="none" id="ApplicaEffettoAvanzato-to-ApplicaEffettoBase" style="stroke:#000000;stroke-width:1;stroke-dasharray:7.0,7.0;"/><polygon fill="#000000" points="441.1,1143.62,437.1,1152.62,441.1,1148.62,445.1,1152.62,441.1,1143.62" style="stroke:#000000;stroke-width:1;"/><text fill="#000000" font-family="Verdana" font-size="13" lengthAdjust="spacing" textLength="61.1851" x="392.0028" y="1173.7169">&#171;extend&#187;</text><text fill="#000000" font-family="Verdana" font-size="13" lengthAdjust="spacing" textLength="141.9907" x="351.6" y="1188.8497">[effetto richiede dadi]</text></g><!--link ProcediVittoria to UC4--><g class="link" data-entity-1="ProcediVittoria" data-entity-2="UC4" data-source-line="47" data-uid="lnk18" id="link_ProcediVittoria_UC4"><path d="M366.89,1318.19 C312.01,1311.16 241.7,1291.4 211.11,1237.53 C178.77,1180.56 230.39,1123.35 279.82,1076.53 C308.51,1049.34 343.1855,1032.6247 376.3355,1020.6747" fill="none" id="ProcediVittoria-to-UC4" style="stroke:#000000;stroke-width:1;stroke-dasharray:7.0,7.0;"/><polygon fill="#000000" points="381.98,1018.64,372.1568,1017.9291,377.2763,1020.3356,374.8698,1025.4551,381.98,1018.64" style="stroke:#000000;stroke-width:1;"/><text fill="#000000" font-family="Verdana" font-size="13" lengthAdjust="spacing" textLength="61.1851" x="181.1738" y="1218.5969">&#171;extend&#187;</text><text fill="#000000" font-family="Verdana" font-size="13" lengthAdjust="spacing" textLength="75.8926" x="173.82" y="1233.7297">[casella 63]</text></g><!--link ApplicaEffettoBase to AG_Altri--><g class="link" data-entity-1="ApplicaEffettoBase" data-entity-2="AG_Altri" data-source-line="50" data-uid="lnk19" id="link_ApplicaEffettoBase_AG_Altri"><path d="M504.38,1102.68 C591.16,1080.59 740.6753,1042.5496 818.0953,1022.8496" fill="none" id="ApplicaEffettoBase-to-AG_Altri" style="stroke:#000000;stroke-width:1;stroke-dasharray:7.0,7.0;"/><polygon fill="#000000" points="823.91,1021.37,814.2015,1019.7129,819.0644,1022.603,816.1743,1027.4659,823.91,1021.37" style="stroke:#000000;stroke-width:1;"/><text fill="#000000" font-family="Verdana" font-size="13" lengthAdjust="spacing" textLength="96.4907" x="637.38" y="1041.5969">(effetti globali)</text></g><!--link ComunicaEffetto to AG_Altri--><g class="link" data-entity-1="ComunicaEffetto" data-entity-2="AG_Altri" data-source-line="51" data-uid="lnk20" id="link_ComunicaEffetto_AG_Altri"><path d="M507.16,917.08 C594.45,939.3 741.5453,976.7305 818.1453,996.2205" fill="none" id="ComunicaEffetto-to-AG_Altri" style="stroke:#000000;stroke-width:1;stroke-dasharray:7.0,7.0;"/><polygon fill="#000000" points="823.96,997.7,816.2242,991.6043,819.1144,996.4671,814.2516,999.3572,823.96,997.7" style="stroke:#000000;stroke-width:1;"/><text fill="#000000" font-family="Verdana" font-size="13" lengthAdjust="spacing" textLength="104.6094" x="633.38" y="933.5969">(aggiornamento</text><text fill="#000000" font-family="Verdana" font-size="13" lengthAdjust="spacing" textLength="50.9653" x="660.202" y="948.7297">visuale)</text></g><!--link VerificaCasella63 to GMN24--><g class="link" data-entity-1="VerificaCasella63" data-entity-2="GMN24" data-source-line="70" data-uid="lnk26" id="link_VerificaCasella63_GMN24"><path d="M376.8,817.97 C323.14,816.13 249.47,803.74 211.32,754.03 C166.76,695.98 249.14,648.05 327.37,617.75" fill="none" id="VerificaCasella63-GMN24" style="stroke:#000000;stroke-width:1;stroke-dasharray:7.0,7.0;"/></g><!--link AnalizzaCasella to GMN27--><g class="link" data-entity-1="AnalizzaCasella" data-entity-2="GMN27" data-source-line="82" data-uid="lnk29" id="link_AnalizzaCasella_GMN27"><path d="M371.32,728.63 C317.95,723.05 247.57,705.89 211.32,656.03 C172.9,603.18 175.55,563.7 211.32,509.03 C235.27,472.41 275.83,449.05 316.27,434.19" fill="none" id="AnalizzaCasella-GMN27" style="stroke:#000000;stroke-width:1;stroke-dasharray:7.0,7.0;"/></g><!--link ApplicaEffettoBase to GMN30--><g class="link" data-entity-1="ApplicaEffettoBase" data-entity-2="GMN30" data-source-line="93" data-uid="lnk32" id="link_ApplicaEffettoBase_GMN30"><path d="M363.97,1110.34 C311.36,1100.3 245.28,1077.91 211.32,1028.03 C125.64,902.2 127.99,470.42 211.32,343.03 C236.76,304.13 280.94,280.2 323.81,265.51" fill="none" id="ApplicaEffettoBase-GMN30" style="stroke:#000000;stroke-width:1;stroke-dasharray:7.0,7.0;"/></g><!--link ApplicaEffettoAvanzato to GMN33--><g class="link" data-entity-1="ApplicaEffettoAvanzato" data-entity-2="GMN33" data-source-line="104" data-uid="lnk35" id="link_ApplicaEffettoAvanzato_GMN33"><path d="M362.51,1226.38 C310.11,1215.74 244.89,1192.74 211.32,1143.03 C151.24,1054.08 152.56,266.85 211.32,177.03 C227.94,151.61 252.57,132.58 279.59,118.35" fill="none" id="ApplicaEffettoAvanzato-GMN33" style="stroke:#000000;stroke-width:1;stroke-dasharray:7.0,7.0;"/></g><!--SRC=[ZLRRRkf657ttLqmv3uM8q0j7KHMTW-GGG9PERCIjKfe8JUo1Z8wPiMR6j4tLrtv0lwB_qJ_fbtJFpM07el02sfUrzrxxCdoZdicEe2B7b0NoAsK55dY7IabIB0dw8q3mkS7frwtW9Sk6FES2_VnC5R4QBZ8YhFGc1pCZ3ONWlnuB_po2nga2-MdW3wEhSNyyFWDzZ298gZ3RvkTI_33-VlpJMIGj7NEcvkftG7ZYULO3ProTnuNFS7Wsmo0d6uKKHu9kdnNAg4wKSXO4jkxMXF8Kmo-2KYu4OOgq49PeClG6OQu4HLjdHeqsdAoDE0WETRUcM2YgCA9CGqdUSYdxtYs77xLl2xwlqOH81RcWd3mmhSq1GHOafJYdhPhRYWYweIaU6YjyrJSWNWeGieB0wDz_q5M_xXyoW7nvyVx6syl0Mz62L_uDpwB88SHeio5AyHijCivM3Bx4QXxOazQz0oFSO_O2D9x3IJb3ET-256KuQn0nvBkI7R0CXfSTWs2BgtZTVIfuIZAweagtqV9WPGIyyGFREqhHtfcqzFnyYsOanoymCh2LWhAK5ZWdmMI8BYy7kgV79XIQd-PbHb1RabsXiv9aMy9sTWBT_jxWH3klqQTFpcqmy6RDhfqqQZ9IDwhbHNvJX6Me3GndL8i0lXESw73F56MWhCzWyC1-yVFbHfGy1cSQgrD_3Tf0Sws2dKoVAV1lclqOD3lqTYfN_KTTeWr3aImHhcygAeW0MLhgyhsLMx6JbUlStM93qBRtsURyoR3LfBlfWBSGMp2yWoi2SxYdiWIgEa5WxfSzG7oZJukUoukBAHmFtmvoVN5Xn9VeS96UCTfnAJbKab66KNivx7USrPHBwuWse8BhaH55n0v-AsnCN91nNXg4QdHze1zwrIoYm_RQ2uBQVWTik1zxQ4xW33FGTH5sisbkXtSqTlsUxpuYUs01wg-uDmOVUzNG0Y6op1LKUfmkbALEaUBRxDFqIqwTVgw1gjx3FhjU0BgUUzq1ruSd3fNjT2DUhQBBOLZ5h-RT9m8i51NndpLJ__trDrf5YqKoYyBZGg9TaHCz2RXMITNStfQegeVj3lgiqOu1PfwUezXmehY9A67MiMs4fBKMk9DcNZgbp2m26x18L-U9Q1oRjojOu2Sm0e6km7cqArBil3XnZygv8x1TLu3h0eR7RP9JkhX9gOfILU7qZFc3aLMD5_R_JZiUpUVBEEcYMVGbZ8THs4NJ95wCkeYejDTve-PN1y25zvEctxJ3_8r7ixjmlOpNY-KiJhwxNOxChyXleuqvJUxl8PVfB9f4IJnooba4qn4dwoYExgFa7KFYMSAr7DlLT5kwxdXcnlVwC99Tf4h1w5nF1wp6Eultnxj1GCfrTbBI0mkUvBKkA8I2RgFHOfPuRNXxcqodeBvBLj7TA5vupIhv4gx3LHWl8gJVU5RoFJLN_nrikFzLi9LASFYV91gyEBP6KX7fHsdcNnORASTm_6oy1YVLLMuyFgzEGQCt_kesjpQi6Pj6G4_iCqBT2tLy4DzOLpFVj_wgmqtRwnDk- - -h-1y0]--></g></svg>