<svg xmlns="http://www.w3.org/2000/svg" xmlns:xlink="http://www.w3.org/1999/xlink" contentStyleType="text/css" data-diagram-type="DESCRIPTION" height="1615px" preserveAspectRatio="none" style="width:1005px;height:1615px;background:#FFFFFF;" version="1.1" viewBox="0 0 1005 1615" width="1005px" zoomAndPan="magnify"><defs/><g><!--cluster Gestione turni--><g class="cluster" data-entity="Gestione turni" data-source-line="27" data-uid="ent0005" id="cluster_Gestione turni"><rect fill="#F0F8FF" height="740" rx="2.5" ry="2.5" style="stroke:#000000;stroke-width:1;" width="236" x="295.49" y="671.97"/><text fill="#000000" font-family="Verdana" font-size="14" font-weight="bold" lengthAdjust="spacing" textLength="113.0938" x="356.9431" y="686.9651">Gestione turni</text></g><!--entity UC5--><g class="entity" data-entity="UC5" data-source-line="28" data-uid="ent0006" id="entity_UC5"><ellipse cx="413.4911" cy="990.9662" fill="#FFFFFF" rx="81.5311" ry="18.7062" style="stroke:#000000;stroke-width:1;"/><text fill="#000000" font-family="Verdana" font-size="14" lengthAdjust="spacing" textLength="134.2715" x="346.3554" y="995.6147">UC5: Gestire i turni</text></g><!--entity IdentificaProssimo--><g class="entity" data-entity="IdentificaProssimo" data-source-line="29" data-uid="ent0007" id="entity_IdentificaProssimo"><ellipse cx="413.4934" cy="730.9701" fill="#FFFFFF" rx="97.5634" ry="23.8701" style="stroke:#000000;stroke-width:1;"/><text fill="#000000" font-family="Verdana" font-size="14" lengthAdjust="spacing" textLength="147.6836" x="339.6516" y="730.7296">Identificare prossimo</text><text fill="#000000" font-family="Verdana" font-size="14" lengthAdjust="spacing" textLength="66.042" x="380.4724" y="747.0265">giocatore</text></g><!--entity VerificaBlocco--><g class="entity" data-entity="VerificaBlocco" data-source-line="30" data-uid="ent0008" id="entity_VerificaBlocco"><ellipse cx="413.4933" cy="813.9747" fill="#FFFFFF" rx="79.0433" ry="24.1747" style="stroke:#000000;stroke-width:1;"/><text fill="#000000" font-family="Verdana" font-size="14" lengthAdjust="spacing" textLength="117.0518" x="354.9674" y="813.252">Verificare blocco</text><text fill="#000000" font-family="Verdana" font-size="14" lengthAdjust="spacing" textLength="66.042" x="380.4723" y="829.5488">giocatore</text></g><!--entity SaltaTurno--><g class="entity" data-entity="SaltaTurno" data-source-line="31" data-uid="ent0009" id="entity_SaltaTurno"><ellipse cx="413.4932" cy="1268.9719" fill="#FFFFFF" rx="64.1232" ry="24.7019" style="stroke:#000000;stroke-width:1;"/><text fill="#000000" font-family="Verdana" font-size="14" lengthAdjust="spacing" textLength="91.7998" x="367.5933" y="1267.4375">Saltare turno</text><text fill="#000000" font-family="Verdana" font-size="14" lengthAdjust="spacing" textLength="66.042" x="380.4722" y="1283.7344">giocatore</text></g><!--entity DecrementaBlocco--><g class="entity" data-entity="DecrementaBlocco" data-source-line="32" data-uid="ent0010" id="entity_DecrementaBlocco"><ellipse cx="413.4949" cy="1370.9727" fill="#FFFFFF" rx="83.3549" ry="25.3127" style="stroke:#000000;stroke-width:1;"/><text fill="#000000" font-family="Verdana" font-size="14" lengthAdjust="spacing" textLength="101.0215" x="362.9841" y="1366.4163">Decrementare</text><text fill="#000000" font-family="Verdana" font-size="14" lengthAdjust="spacing" textLength="117.3799" x="354.8049" y="1382.7132">contatore blocco</text></g><!--entity AggiornaTurno--><g class="entity" data-entity="AggiornaTurno" data-source-line="33" data-uid="ent0011" id="entity_AggiornaTurno"><ellipse cx="413.4939" cy="896.966" fill="#FFFFFF" rx="96.0139" ry="23.946" style="stroke:#000000;stroke-width:1;"/><text fill="#000000" font-family="Verdana" font-size="14" lengthAdjust="spacing" textLength="144.7373" x="341.1253" y="896.6043">Aggiornare contatori</text><text fill="#000000" font-family="Verdana" font-size="14" lengthAdjust="spacing" textLength="69.3711" x="378.8084" y="912.9012">turno/giro</text></g><!--entity PreparaNuovoTurno--><g class="entity" data-entity="PreparaNuovoTurno" data-source-line="34" data-uid="ent0012" id="entity_PreparaNuovoTurno"><ellipse cx="413.4895" cy="1183.9677" fill="#FFFFFF" rx="101.9995" ry="24.8877" style="stroke:#000000;stroke-width:1;"/><text fill="#000000" font-family="Verdana" font-size="14" lengthAdjust="spacing" textLength="147.4238" x="339.7776" y="1182.1535">Preparare interfaccia</text><text fill="#000000" font-family="Verdana" font-size="14" lengthAdjust="spacing" textLength="112.875" x="357.052" y="1198.4504">per nuovo turno</text></g><!--entity MantieniGiocatore--><g class="entity" data-entity="MantieniGiocatore" data-source-line="35" data-uid="ent0013" id="entity_MantieniGiocatore"><ellipse cx="413.4902" cy="1099.9723" fill="#FFFFFF" rx="96.0802" ry="23.7823" style="stroke:#000000;stroke-width:1;"/><text fill="#000000" font-family="Verdana" font-size="14" lengthAdjust="spacing" textLength="145.9814" x="340.4995" y="1099.8728">Mantenere giocatore</text><text fill="#000000" font-family="Verdana" font-size="14" lengthAdjust="spacing" textLength="59.3633" x="383.8086" y="1116.1697">corrente</text></g><!--entity GA--><g class="entity" data-entity="GA" data-source-line="23" data-uid="ent0002" id="entity_GA"><ellipse cx="45.002" cy="1256.17" fill="#E6F3FF" rx="8" ry="8" style="stroke:#000000;stroke-width:1;"/><path d="M45.002,1264.17 L45.002,1291.17 M32.002,1272.17 L58.002,1272.17 M45.002,1291.17 L32.002,1306.17 M45.002,1291.17 L58.002,1306.17" fill="none" style="stroke:#000000;stroke-width:1;"/><text fill="#000000" font-family="Verdana" font-size="14" lengthAdjust="spacing" textLength="68.0039" x="11" y="1321.1651">Giocatore</text><text fill="#000000" font-family="Verdana" font-size="14" lengthAdjust="spacing" textLength="49.5127" x="11" y="1337.462">attuale</text></g><!--entity GP--><g class="entity" data-entity="GP" data-source-line="24" data-uid="ent0003" id="entity_GP"><ellipse cx="867.461" cy="971.17" fill="#E6F3FF" rx="8" ry="8" style="stroke:#000000;stroke-width:1;"/><path d="M867.461,979.17 L867.461,1006.17 M854.461,987.17 L880.461,987.17 M867.461,1006.17 L854.461,1021.17 M867.461,1006.17 L880.461,1021.17" fill="none" style="stroke:#000000;stroke-width:1;"/><text fill="#000000" font-family="Verdana" font-size="14" lengthAdjust="spacing" textLength="63.4443" x="834.44" y="1036.1651">Prossimo</text><text fill="#000000" font-family="Verdana" font-size="14" lengthAdjust="spacing" textLength="66.042" x="834.44" y="1052.462">giocatore</text></g><!--entity AG_All--><g class="entity" data-entity="AG_All" data-source-line="25" data-uid="ent0004" id="entity_AG_All"><ellipse cx="867.4592" cy="842.17" fill="#E6F3FF" rx="8" ry="8" style="stroke:#000000;stroke-width:1;"/><path d="M867.4592,850.17 L867.4592,877.17 M854.4592,858.17 L880.4592,858.17 M867.4592,877.17 L854.4592,892.17 M867.4592,877.17 L880.4592,892.17" fill="none" style="stroke:#000000;stroke-width:1;"/><text fill="#000000" font-family="Verdana" font-size="14" lengthAdjust="spacing" textLength="40.6328" x="836.8" y="907.1651">Tutti i</text><text fill="#000000" font-family="Verdana" font-size="14" lengthAdjust="spacing" textLength="61.3184" x="836.8" y="923.462">giocatori</text></g><g class="entity" data-entity="GMN24" data-source-line="57" data-uid="ent0025" id="entity_GMN24"><path d="M271,1431.74 L271,1431.74 L79.5,1314.62 L271,1439.74 L271,1608.2009 A0,0 0 0 0 271,1608.2009 L555.9736,1608.2009 A0,0 0 0 0 555.9736,1608.2009 L555.9736,1441.74 L545.9736,1431.74 L271,1431.74 A0,0 0 0 0 271,1431.74" fill="#FFFFCC" style="stroke:#000000;stroke-width:1;"/><path d="M545.9736,1431.74 L545.9736,1441.74 L555.9736,1441.74 L545.9736,1431.74" fill="#FFFFCC" style="stroke:#000000;stroke-width:1;"/><text fill="#000000" font-family="Verdana" font-size="13" font-weight="bold" lengthAdjust="spacing" textLength="108.6338" x="277" y="1448.8069">Precondizione:</text><text fill="#000000" font-family="Verdana" font-size="13" lengthAdjust="spacing" textLength="263.9736" x="277" y="1463.9397">- Turno del giocatore attuale completato</text><text fill="#000000" font-family="Verdana" font-size="13" lengthAdjust="spacing" textLength="205.0039" x="277" y="1479.0725">- Nessuna condizione di vittoria</text><text fill="#000000" font-family="Verdana" font-size="13" lengthAdjust="spacing" textLength="4.1323" x="277" y="1494.2053">&#160;</text><text fill="#000000" font-family="Verdana" font-size="13" font-weight="bold" lengthAdjust="spacing" textLength="133.6245" x="277" y="1509.3381">Scenario normale:</text><text fill="#000000" font-family="Verdana" font-size="13" lengthAdjust="spacing" textLength="205.7847" x="277" y="1524.471">1. Identifica prossimo giocatore</text><text fill="#000000" font-family="Verdana" font-size="13" lengthAdjust="spacing" textLength="208.5586" x="277" y="1539.6038">2. Verifica se deve saltare turno</text><text fill="#000000" font-family="Verdana" font-size="13" lengthAdjust="spacing" textLength="237.5864" x="277" y="1554.7366">3. Se bloccato &#8594; salta e decrementa</text><text fill="#000000" font-family="Verdana" font-size="13" lengthAdjust="spacing" textLength="200.9604" x="277" y="1569.8694">4. Se libero &#8594; diventa corrente</text><text fill="#000000" font-family="Verdana" font-size="13" lengthAdjust="spacing" textLength="185.0596" x="277" y="1585.0022">5. Aggiorna contatori partita</text><text fill="#000000" font-family="Verdana" font-size="13" lengthAdjust="spacing" textLength="249.0313" x="277" y="1600.135">6. Prepara interfaccia per nuovo turno</text></g><g class="entity" data-entity="GMN27" data-source-line="71" data-uid="ent0028" id="entity_GMN27"><path d="M288.24,509.87 L288.24,656.0653 A0,0 0 0 0 288.24,656.0653 L409.49,656.0653 L413.49,706.69 L417.49,656.0653 L538.7332,656.0653 A0,0 0 0 0 538.7332,656.0653 L538.7332,519.87 L528.7332,509.87 L288.24,509.87 A0,0 0 0 0 288.24,509.87" fill="#FFFFCC" style="stroke:#000000;stroke-width:1;"/><path d="M528.7332,509.87 L528.7332,519.87 L538.7332,519.87 L528.7332,509.87" fill="#FFFFCC" style="stroke:#000000;stroke-width:1;"/><text fill="#000000" font-family="Verdana" font-size="13" font-weight="bold" lengthAdjust="spacing" textLength="131.79" x="294.24" y="526.9369">Implementazione:</text><text fill="#000000" font-family="Verdana" font-size="13" lengthAdjust="spacing" textLength="229.4932" x="294.24" y="542.0697">Partita.passaAlProssimoGiocatore()</text><text fill="#000000" font-family="Verdana" font-size="13" lengthAdjust="spacing" textLength="4.1323" x="294.24" y="557.2025">&#160;</text><text fill="#000000" font-family="Verdana" font-size="13" font-weight="bold" lengthAdjust="spacing" textLength="52.6538" x="294.24" y="572.3353">Logica:</text><text fill="#000000" font-family="Verdana" font-size="13" lengthAdjust="spacing" textLength="207.0732" x="294.24" y="587.4681">Cicla attraverso ordineGiocatori</text><text fill="#000000" font-family="Verdana" font-size="13" lengthAdjust="spacing" textLength="184.1519" x="294.24" y="602.601">Torna al primo dopo l'ultimo</text><text fill="#000000" font-family="Verdana" font-size="13" lengthAdjust="spacing" textLength="4.1323" x="294.24" y="617.7338">&#160;</text><text fill="#000000" font-family="Verdana" font-size="13" font-weight="bold" lengthAdjust="spacing" textLength="56.4941" x="294.24" y="632.8666">Output:</text><text fill="#000000" font-family="Verdana" font-size="13" lengthAdjust="spacing" textLength="220.7524" x="294.24" y="647.9994">Riferimento al prossimo giocatore</text></g><g class="entity" data-entity="GMN30" data-source-line="83" data-uid="ent0031" id="entity_GMN30"><path d="M297.56,359 L297.56,474.9297 L529.4164,474.9297 L529.4164,369 L519.4164,359 L297.56,359" fill="#FFFFCC" style="stroke:#000000;stroke-width:1;"/><path d="M519.4164,359 L519.4164,369 L529.4164,369 L519.4164,359" fill="#FFFFCC" style="stroke:#000000;stroke-width:1;"/><text fill="#000000" font-family="Verdana" font-size="13" font-weight="bold" lengthAdjust="spacing" textLength="132.9136" x="303.56" y="376.0669">Condizioni blocco:</text><text fill="#000000" font-family="Verdana" font-size="13" lengthAdjust="spacing" textLength="210.8564" x="303.56" y="391.1997">- turniSaltati &gt; 0 (effetti caselle)</text><text fill="#000000" font-family="Verdana" font-size="13" lengthAdjust="spacing" textLength="192.7402" x="303.56" y="406.3325">- Condizioni speciali da effetti</text><text fill="#000000" font-family="Verdana" font-size="13" lengthAdjust="spacing" textLength="4.1323" x="303.56" y="421.4653">&#160;</text><text fill="#000000" font-family="Verdana" font-size="13" font-weight="bold" lengthAdjust="spacing" textLength="131.79" x="303.56" y="436.5981">Implementazione:</text><text fill="#000000" font-family="Verdana" font-size="13" lengthAdjust="spacing" textLength="197.7422" x="303.56" y="451.731">Giocatore.devePassareTurno()</text><text fill="#000000" font-family="Verdana" font-size="13" lengthAdjust="spacing" textLength="201.1763" x="303.56" y="466.8638">Giocatore.getTurniSaltati() &gt; 0</text></g><g class="entity" data-entity="GMN33" data-source-line="93" data-uid="ent0034" id="entity_GMN33"><path d="M277.15,162.31 L277.15,323.6381 L549.8409,323.6381 L549.8409,172.31 L539.8409,162.31 L277.15,162.31" fill="#FFFFCC" style="stroke:#000000;stroke-width:1;"/><path d="M539.8409,162.31 L539.8409,172.31 L549.8409,172.31 L539.8409,162.31" fill="#FFFFCC" style="stroke:#000000;stroke-width:1;"/><text fill="#000000" font-family="Verdana" font-size="13" font-weight="bold" lengthAdjust="spacing" textLength="137.7632" x="283.15" y="179.3769">Quando si verifica:</text><text fill="#000000" font-family="Verdana" font-size="13" lengthAdjust="spacing" textLength="187.1797" x="283.15" y="194.5097">Giocatore ha turniSaltati &gt; 0</text><text fill="#000000" font-family="Verdana" font-size="13" lengthAdjust="spacing" textLength="4.1323" x="283.15" y="209.6425">&#160;</text><text fill="#000000" font-family="Verdana" font-size="13" font-weight="bold" lengthAdjust="spacing" textLength="49.9243" x="283.15" y="224.7753">Azioni:</text><text fill="#000000" font-family="Verdana" font-size="13" lengthAdjust="spacing" textLength="173.2656" x="283.15" y="239.9081">1. Decrementa turniSaltati</text><text fill="#000000" font-family="Verdana" font-size="13" lengthAdjust="spacing" textLength="251.6909" x="283.15" y="255.041">2. Se ancora &gt; 0 &#8594; identifica prossimo</text><text fill="#000000" font-family="Verdana" font-size="13" lengthAdjust="spacing" textLength="206.7305" x="283.15" y="270.1738">3. Se = 0 &#8594; giocatore sbloccato</text><text fill="#000000" font-family="Verdana" font-size="13" lengthAdjust="spacing" textLength="4.1323" x="283.15" y="285.3066">&#160;</text><text fill="#000000" font-family="Verdana" font-size="13" font-weight="bold" lengthAdjust="spacing" textLength="71.2461" x="283.15" y="300.4394">Risultato:</text><text fill="#000000" font-family="Verdana" font-size="13" lengthAdjust="spacing" textLength="214.6396" x="283.15" y="315.5722">Ricorsione fino a giocatore libero</text></g><g class="entity" data-entity="GMN36" data-source-line="106" data-uid="ent0037" id="entity_GMN36"><path d="M287.21,11 L287.21,126.9297 L539.7725,126.9297 L539.7725,21 L529.7725,11 L287.21,11" fill="#FFFFCC" style="stroke:#000000;stroke-width:1;"/><path d="M529.7725,11 L529.7725,21 L539.7725,21 L529.7725,11" fill="#FFFFCC" style="stroke:#000000;stroke-width:1;"/><text fill="#000000" font-family="Verdana" font-size="13" font-weight="bold" lengthAdjust="spacing" textLength="154.3306" x="293.21" y="28.0669">Contatori aggiornati:</text><text fill="#000000" font-family="Verdana" font-size="13" lengthAdjust="spacing" textLength="122.5352" x="293.21" y="43.1997">- turnoCorrente++</text><text fill="#000000" font-family="Verdana" font-size="13" lengthAdjust="spacing" textLength="231.5625" x="293.21" y="58.3325">- giroCorrente (se completato ciclo)</text><text fill="#000000" font-family="Verdana" font-size="13" lengthAdjust="spacing" textLength="4.1323" x="293.21" y="73.4653">&#160;</text><text fill="#000000" font-family="Verdana" font-size="13" font-weight="bold" lengthAdjust="spacing" textLength="131.79" x="293.21" y="88.5981">Implementazione:</text><text fill="#000000" font-family="Verdana" font-size="13" lengthAdjust="spacing" textLength="169.2222" x="293.21" y="103.731">Partita.incrementaTurno()</text><text fill="#000000" font-family="Verdana" font-size="13" lengthAdjust="spacing" textLength="132.1328" x="293.21" y="118.8638">Partita.verificaGiro()</text></g><g class="entity" data-entity="GMN39" data-source-line="116" data-uid="ent0040" id="entity_GMN39"><path d="M735.98,1126 L735.98,1179.97 L515.92,1183.97 L735.98,1187.97 L735.98,1241.9297 A0,0 0 0 0 735.98,1241.9297 L998.9463,1241.9297 A0,0 0 0 0 998.9463,1241.9297 L998.9463,1136 L988.9463,1126 L735.98,1126 A0,0 0 0 0 735.98,1126" fill="#FFFFCC" style="stroke:#000000;stroke-width:1;"/><path d="M988.9463,1126 L988.9463,1136 L998.9463,1136 L988.9463,1126" fill="#FFFFCC" style="stroke:#000000;stroke-width:1;"/><text fill="#000000" font-family="Verdana" font-size="13" font-weight="bold" lengthAdjust="spacing" textLength="132.6724" x="741.98" y="1143.0669">Azioni interfaccia:</text><text fill="#000000" font-family="Verdana" font-size="13" lengthAdjust="spacing" textLength="241.9663" x="741.98" y="1158.1997">- Abilita controlli per nuovo giocatore</text><text fill="#000000" font-family="Verdana" font-size="13" lengthAdjust="spacing" textLength="172.7642" x="741.98" y="1173.3325">- Aggiorna messaggi turno</text><text fill="#000000" font-family="Verdana" font-size="13" lengthAdjust="spacing" textLength="195.9458" x="741.98" y="1188.4653">- Evidenzia giocatore corrente</text><text fill="#000000" font-family="Verdana" font-size="13" lengthAdjust="spacing" textLength="4.1323" x="741.98" y="1203.5981">&#160;</text><text fill="#000000" font-family="Verdana" font-size="13" font-weight="bold" lengthAdjust="spacing" textLength="85.7124" x="741.98" y="1218.731">Condizione:</text><text fill="#000000" font-family="Verdana" font-size="13" lengthAdjust="spacing" textLength="189.7124" x="741.98" y="1233.8638">Cambio effettivo di giocatore</text></g><!--link GA to UC5--><g class="link" data-entity-1="GA" data-entity-2="UC5" data-source-line="39" data-uid="lnk14" id="link_GA_UC5"><path d="M51.22,1246.92 C59.6,1180.44 78.3,1063.97 109,1035.97 C172.08,978.46 269.1307,974.8214 337.3707,980.5114" fill="none" id="GA-to-UC5" style="stroke:#000000;stroke-width:1;"/><polygon fill="#000000" points="343.35,981.01,334.7135,976.276,338.3673,980.5945,334.0487,984.2483,343.35,981.01" style="stroke:#000000;stroke-width:1;"/></g><!--link UC5 to GP--><g class="link" data-entity-1="UC5" data-entity-2="GP" data-source-line="40" data-uid="lnk15" id="link_UC5_GP"><path d="M494.25,994.15 C594.99,998.16 757.6647,1004.6416 828.0647,1007.4416" fill="none" id="UC5-to-GP" style="stroke:#000000;stroke-width:1;"/><polygon fill="#000000" points="834.06,1007.68,825.2261,1003.3255,829.0639,1007.4813,824.9081,1011.3192,834.06,1007.68" style="stroke:#000000;stroke-width:1;"/><text fill="#000000" font-family="Verdana" font-size="13" lengthAdjust="spacing" textLength="118.2568" x="586.98" y="994.0369">(diventa corrente)</text></g><!--link UC5 to IdentificaProssimo--><g class="link" data-entity-1="UC5" data-entity-2="IdentificaProssimo" data-source-line="43" data-uid="lnk16" id="link_UC5_IdentificaProssimo"><path d="M340.49,999.64 C287.86,1001.38 219.74,993.48 182.25,948.47 C159.1,920.67 83.41,921.08 271,771.97 C287.83,758.6 303.0831,751.2706 323.7531,745.2006" fill="none" id="UC5-to-IdentificaProssimo" style="stroke:#000000;stroke-width:1;stroke-dasharray:7.0,7.0;"/><polygon fill="#000000" points="329.51,743.51,319.7476,742.2079,324.7126,744.9188,322.0017,749.8838,329.51,743.51" style="stroke:#000000;stroke-width:1;"/><text fill="#000000" font-family="Verdana" font-size="13" lengthAdjust="spacing" textLength="63.0068" x="143.5" y="944.5369">&#171;include&#187;</text></g><!--link UC5 to VerificaBlocco--><g class="link" data-entity-1="UC5" data-entity-2="VerificaBlocco" data-source-line="44" data-uid="lnk17" id="link_UC5_VerificaBlocco"><path d="M347.04,979.76 C261.76,962.54 130.64,924.76 182.25,861.47 C218.71,816.76 278.98,806.8439 331.26,806.9839" fill="none" id="UC5-to-VerificaBlocco" style="stroke:#000000;stroke-width:1;stroke-dasharray:7.0,7.0;"/><polygon fill="#000000" points="337.26,807,328.2707,802.9759,332.26,806.9866,328.2493,810.9759,337.26,807" style="stroke:#000000;stroke-width:1;"/><text fill="#000000" font-family="Verdana" font-size="13" lengthAdjust="spacing" textLength="63.0068" x="143.5" y="874.5369">&#171;include&#187;</text></g><!--link UC5 to AggiornaTurno--><g class="link" data-entity-1="UC5" data-entity-2="AggiornaTurno" data-source-line="45" data-uid="lnk18" id="link_UC5_AggiornaTurno"><path d="M413.49,971.95 C413.49,957.36 413.49,943.11 413.49,927.33" fill="none" id="UC5-to-AggiornaTurno" style="stroke:#000000;stroke-width:1;stroke-dasharray:7.0,7.0;"/><polygon fill="#000000" points="413.49,921.33,409.49,930.33,413.49,926.33,417.49,930.33,413.49,921.33" style="stroke:#000000;stroke-width:1;"/><text fill="#000000" font-family="Verdana" font-size="13" lengthAdjust="spacing" textLength="63.0068" x="370.49" y="951.1569">&#171;include&#187;</text></g><!--link SaltaTurno to VerificaBlocco--><g class="link" data-entity-1="SaltaTurno" data-entity-2="VerificaBlocco" data-source-line="48" data-uid="lnk19" id="link_SaltaTurno_VerificaBlocco"><path d="M353.9,1259.25 C326.96,1252.86 295.69,1242.5 271,1225.97 C199.54,1178.12 177.59,1157 148.75,1075.97 C114.15,978.74 199.25,909.44 271,855.97 C291.58,840.64 311.8773,832.3674 336.1073,826.1674" fill="none" id="SaltaTurno-to-VerificaBlocco" style="stroke:#000000;stroke-width:1;stroke-dasharray:7.0,7.0;"/><polygon fill="#000000" points="341.92,824.68,332.2093,823.0359,337.0761,825.9195,334.1925,830.7862,341.92,824.68" style="stroke:#000000;stroke-width:1;"/><text fill="#000000" font-family="Verdana" font-size="13" lengthAdjust="spacing" textLength="61.1851" x="144.7725" y="1057.0369">&#171;extend&#187;</text><text fill="#000000" font-family="Verdana" font-size="13" lengthAdjust="spacing" textLength="130.73" x="110" y="1072.1697">[giocatore bloccato]</text></g><!--link DecrementaBlocco to SaltaTurno--><g class="link" data-entity-1="DecrementaBlocco" data-entity-2="SaltaTurno" data-source-line="49" data-uid="lnk20" id="link_DecrementaBlocco_SaltaTurno"><path d="M413.49,1345.23 C413.49,1329.53 413.49,1315.56 413.49,1300" fill="none" id="DecrementaBlocco-to-SaltaTurno" style="stroke:#000000;stroke-width:1;stroke-dasharray:7.0,7.0;"/><polygon fill="#000000" points="413.49,1294,409.49,1303,413.49,1299,417.49,1303,413.49,1294" style="stroke:#000000;stroke-width:1;"/><text fill="#000000" font-family="Verdana" font-size="13" lengthAdjust="spacing" textLength="63.0068" x="370.49" y="1324.2269">&#171;include&#187;</text></g><!--link PreparaNuovoTurno to UC5--><g class="link" data-entity-1="PreparaNuovoTurno" data-entity-2="UC5" data-source-line="50" data-uid="lnk21" id="link_PreparaNuovoTurno_UC5"><path d="M328.78,1198.18 C271.06,1202.53 197.83,1196.59 156.25,1148.97 C92.13,1075.54 251.1338,1026.7497 346.0838,1004.8297" fill="none" id="PreparaNuovoTurno-to-UC5" style="stroke:#000000;stroke-width:1;stroke-dasharray:7.0,7.0;"/><polygon fill="#000000" points="351.93,1003.48,342.2609,1001.607,347.0581,1004.6047,344.0604,1009.402,351.93,1003.48" style="stroke:#000000;stroke-width:1;"/><text fill="#000000" font-family="Verdana" font-size="13" lengthAdjust="spacing" textLength="61.1851" x="144.7473" y="1130.0369">&#171;extend&#187;</text><text fill="#000000" font-family="Verdana" font-size="13" lengthAdjust="spacing" textLength="115.6797" x="117.5" y="1145.1697">[nuovo giocatore]</text></g><!--link MantieniGiocatore to UC5--><g class="link" data-entity-1="MantieniGiocatore" data-entity-2="UC5" data-source-line="51" data-uid="lnk22" id="link_MantieniGiocatore_UC5"><path d="M413.49,1075.78 C413.49,1055.96 413.49,1034.3 413.49,1016.03" fill="none" id="MantieniGiocatore-to-UC5" style="stroke:#000000;stroke-width:1;stroke-dasharray:7.0,7.0;"/><polygon fill="#000000" points="413.49,1010.03,409.49,1019.03,413.49,1015.03,417.49,1019.03,413.49,1010.03" style="stroke:#000000;stroke-width:1;"/><text fill="#000000" font-family="Verdana" font-size="13" lengthAdjust="spacing" textLength="61.1851" x="364.3816" y="1039.9969">&#171;extend&#187;</text><text fill="#000000" font-family="Verdana" font-size="13" lengthAdjust="spacing" textLength="116.9683" x="336.49" y="1055.1297">[stesso giocatore]</text></g><!--link AggiornaTurno to AG_All--><g class="link" data-entity-1="AggiornaTurno" data-entity-2="AG_All" data-source-line="54" data-uid="lnk23" id="link_AggiornaTurno_AG_All"><path d="M508.96,893.42 C611.96,889.54 764.8542,883.7956 830.5042,881.3256" fill="none" id="AggiornaTurno-to-AG_All" style="stroke:#000000;stroke-width:1;stroke-dasharray:7.0,7.0;"/><polygon fill="#000000" points="836.5,881.1,827.356,877.4412,831.5035,881.288,827.6568,885.4355,836.5,881.1" style="stroke:#000000;stroke-width:1;"/><text fill="#000000" font-family="Verdana" font-size="13" lengthAdjust="spacing" textLength="104.6094" x="593.98" y="868.0369">(aggiornamento</text><text fill="#000000" font-family="Verdana" font-size="13" lengthAdjust="spacing" textLength="85.4268" x="603.5713" y="883.1697">stato partita)</text></g><!--link VerificaBlocco to GMN30--><g class="link" data-entity-1="VerificaBlocco" data-entity-2="GMN30" data-source-line="83" data-uid="lnk32" id="link_VerificaBlocco_GMN30"><path d="M334.77,817.44 C280.63,815.12 212.04,801.89 175,754.47 C107.97,668.66 113.48,599.31 175,509.47 C202.79,468.89 251.17,446.11 297.12,433.32" fill="none" id="VerificaBlocco-GMN30" style="stroke:#000000;stroke-width:1;stroke-dasharray:7.0,7.0;"/></g><!--link SaltaTurno to GMN33--><g class="link" data-entity-1="SaltaTurno" data-entity-2="GMN33" data-source-line="93" data-uid="lnk35" id="link_SaltaTurno_GMN33"><path d="M349.59,1272.54 C293.75,1271.77 215.46,1260.47 175,1208.47 C59.15,1059.56 75.08,519.5 175,359.47 C198.19,322.34 237.01,296.72 276.67,279.19" fill="none" id="SaltaTurno-GMN33" style="stroke:#000000;stroke-width:1;stroke-dasharray:7.0,7.0;"/></g><!--link AggiornaTurno to GMN36--><g class="link" data-entity-1="AggiornaTurno" data-entity-2="GMN36" data-source-line="106" data-uid="lnk38" id="link_AggiornaTurno_GMN36"><path d="M317.7,899.78 C266.91,895.68 208.29,880.9 175,838.47 C82.29,720.27 90.36,286.57 175,162.47 C200.69,124.81 244.04,102.32 286.79,88.89" fill="none" id="AggiornaTurno-GMN36" style="stroke:#000000;stroke-width:1;stroke-dasharray:7.0,7.0;"/></g><!--SRC=[ZLNTZXir5BwVfp3RYoPR9PIMLcXL8cL34rM2RTXTu8Aja3DpahNgs2FR4w2ejpm0ZyYJS8v_PZn9Hc9lDZdvplztFd_X7c4Fh9PSgC9-5AhcXkzPOw7a5jXV1SE_Qrv-t1dTg6gXfJRibqVX8FoYJGKcMAybmhnrRep-FJT-paBpqg7zVE0dRrylNowN0w7pA0PAnzLE3fNuPFby-SrW9B8kjN9txa-CiD6owWLNsWt7nR_5Oh32GiBMCQUP4Rj7nof1XGgjYYBqVR4IkkJu2HuKTwxX4YuOjsmrJu2rqTQAlNvGkmGDY7L2t3VE2IOwWF20-UgtkPH5qOtcOWMMaWDpZL682ZsbvVwqU4L-5_Z_Ydce0IOYjeTyLu5oOYjAdghpZfqP7UipTVU2_0p6Ow-bBiiG89dGVUEjWyvtN3f-ZvK5H__LXBw6dRw3qY2xbSjpTaRQGOaiy9wnW7w0-GuZ6vKbJXPqIAwu25_6bpjXZlpN1eXHDuq-w2v6jDAmbGEpvMKf-8EgmJ15oD1LFz8F72SDIhJqyP782WhmswwZLQcDmVPm5aZ7f-mM9F-4912u8Q5AKNCfYjMSJIOpOa11BA3FgpMxOgDA76WqB0KPzqDW0DbKm4OMzZMc1GkxHX2CmandvvXonTwyYNwpMS8TaU4ifZ_zFgHN5Vo1KwZO23TI2J9XY-CYeypvXC5jDdjGlxRZ2pJ0Zn-A4_PWb2nclvxJJK_zU8yJXGMtwJuKfuizxsWTMDlpn17SQ3_hHoZwivhIzBmSq4vv_8rwmMEnn5g6rJhXEExNgrsGAxqb8IBUNLvYH-qyuUhoqfidB2IeG7Qbi2XaI9fzBO72H_0DrjmeObCAX8h83iBHsN0FYjdkIi2Z4Xgrr-mnLahurJIZLAinNMuFUZ5jrylmLYeu0BEvGdZKoocxw_RB_ltxdm1Yv95MxP5VUwGK6p01TtmL7lLgsZAqqu8qLuzuFKqAa5ywEphqWhXBIuYhs6WSpvvsSNfCSLhlQCw-tjvsrY7tjERMyhbCJYsrHkDyvD_h7KPElWjHIawRDFm01fc6ZvjGa7o51ztxPhaaAS4jLBhMJ3vjf4kbnT3l6rStBeM-5LlSZcTVy3rPuk04-bSReoyIcqGKxOwT_ktoHuelv8mzPoFORe6UIr9HAM4SWLaCMmDkHGfM8HK2EkzbODRjKAT4jpLDt80_ZZZb3h03Tv_LDHfJPSCzTneJA_YnuQhIpEBbn76S5C4U-KdlUHDptsfsL9suzVpIEI7zEJqat0-HJa2SNc5sLTz6LAS9DXrQNiQji0tbqHqrC8drmh0Lz3nc4SBz3S-f9taTDU8T9j5peiyElOWt_EnPjDApdOpqi6Konagy2Zt-7tH8fuSlGfnhpeNqQzhV2bFYJqUjjHfyyfZqjfXhITVRV2EaS469Z9P8vqvc-cevwMHhZ_fCWyfKSiBU7cZNdqI-Yvxm7PzXEuG5tszGmkCHOM8K-zCZ_my0]--></g></svg>