<svg xmlns="http://www.w3.org/2000/svg" xmlns:xlink="http://www.w3.org/1999/xlink" contentStyleType="text/css" data-diagram-type="DESCRIPTION" height="1807px" preserveAspectRatio="none" style="width:1012px;height:1807px;background:#FFFFFF;" version="1.1" viewBox="0 0 1012 1807" width="1012px" zoomAndPan="magnify"><defs/><g><!--cluster Conclusione partita--><g class="cluster" data-entity="Conclusione partita" data-source-line="26" data-uid="ent0004" id="cluster_Conclusione partita"><rect fill="#F0F8FF" height="767" rx="2.5" ry="2.5" style="stroke:#000000;stroke-width:1;" width="224.27" x="297.52" y="852.54"/><text fill="#000000" font-family="Verdana" font-size="14" font-weight="bold" lengthAdjust="spacing" textLength="154.0137" x="332.6482" y="867.5351">Conclusione partita</text></g><!--entity UC6--><g class="entity" data-entity="UC6" data-source-line="27" data-uid="ent0005" id="entity_UC6"><ellipse cx="409.6643" cy="1010.5371" fill="#FFFFFF" rx="85.4743" ry="24.2171" style="stroke:#000000;stroke-width:1;"/><text fill="#000000" font-family="Verdana" font-size="14" lengthAdjust="spacing" textLength="126.6973" x="346.3157" y="1009.7481">UC6: Determinare</text><text fill="#000000" font-family="Verdana" font-size="14" lengthAdjust="spacing" textLength="73.2881" x="373.0203" y="1026.0449">il vincitore</text></g><!--entity VerificaVittoria--><g class="entity" data-entity="VerificaVittoria" data-source-line="28" data-uid="ent0006" id="entity_VerificaVittoria"><ellipse cx="409.6636" cy="911.5369" fill="#FFFFFF" rx="96.1336" ry="23.6569" style="stroke:#000000;stroke-width:1;"/><text fill="#000000" font-family="Verdana" font-size="14" lengthAdjust="spacing" textLength="146.9521" x="336.1875" y="911.6405">Verificare condizione</text><text fill="#000000" font-family="Verdana" font-size="14" lengthAdjust="spacing" textLength="49.9434" x="384.6919" y="927.9374">vittoria</text></g><!--entity DichiaraVincitore--><g class="entity" data-entity="DichiaraVincitore" data-source-line="29" data-uid="ent0007" id="entity_DichiaraVincitore"><ellipse cx="409.6586" cy="1126.5402" fill="#FFFFFF" rx="52.3886" ry="25.2302" style="stroke:#000000;stroke-width:1;"/><text fill="#000000" font-family="Verdana" font-size="14" lengthAdjust="spacing" textLength="72.4131" x="373.4521" y="1124.2177">Dichiarare</text><text fill="#000000" font-family="Verdana" font-size="14" lengthAdjust="spacing" textLength="61.0586" x="379.1293" y="1140.5146">vincitore</text></g><!--entity TerminaPartita--><g class="entity" data-entity="TerminaPartita" data-source-line="30" data-uid="ent0008" id="entity_TerminaPartita"><ellipse cx="409.6644" cy="1311.5436" fill="#FFFFFF" rx="50.5244" ry="24.4336" style="stroke:#000000;stroke-width:1;"/><text fill="#000000" font-family="Verdana" font-size="14" lengthAdjust="spacing" textLength="72.2695" x="373.5296" y="1310.4189">Terminare</text><text fill="#000000" font-family="Verdana" font-size="14" lengthAdjust="spacing" textLength="46.6689" x="386.3299" y="1326.7157">partita</text></g><!--entity NotificaVittoria--><g class="entity" data-entity="NotificaVittoria" data-source-line="31" data-uid="ent0009" id="entity_NotificaVittoria"><ellipse cx="409.6607" cy="1227.536" fill="#FFFFFF" rx="48.3307" ry="24.766" style="stroke:#000000;stroke-width:1;"/><text fill="#000000" font-family="Verdana" font-size="14" lengthAdjust="spacing" textLength="67.8809" x="375.7202" y="1225.9047">Notificare</text><text fill="#000000" font-family="Verdana" font-size="14" lengthAdjust="spacing" textLength="49.9434" x="384.689" y="1242.2016">vittoria</text></g><!--entity SalvaStatistiche--><g class="entity" data-entity="SalvaStatistiche" data-source-line="32" data-uid="ent0010" id="entity_SalvaStatistiche"><ellipse cx="409.6612" cy="1496.5411" fill="#FFFFFF" rx="82.0312" ry="23.8211" style="stroke:#000000;stroke-width:1;"/><text fill="#000000" font-family="Verdana" font-size="14" lengthAdjust="spacing" textLength="52.5889" x="383.3667" y="1489.7031">Salvare</text><text fill="#000000" font-family="Verdana" font-size="14" lengthAdjust="spacing" textLength="123.7168" x="347.8028" y="1505.9999">statistiche partita</text></g><!--entity RitornaMenu--><g class="entity" data-entity="RitornaMenu" data-source-line="33" data-uid="ent0011" id="entity_RitornaMenu"><ellipse cx="409.66" cy="1412.5418" fill="#FFFFFF" rx="78.58" ry="24.7218" style="stroke:#000000;stroke-width:1;"/><text fill="#000000" font-family="Verdana" font-size="14" lengthAdjust="spacing" textLength="82.168" x="368.576" y="1407.1064">Ritornare al</text><text fill="#000000" font-family="Verdana" font-size="14" lengthAdjust="spacing" textLength="113.4082" x="352.9559" y="1423.4032">menu principale</text></g><!--entity ContinuaGioco--><g class="entity" data-entity="ContinuaGioco" data-source-line="34" data-uid="ent0012" id="entity_ContinuaGioco"><ellipse cx="409.6604" cy="1579.544" fill="#FFFFFF" rx="52.7104" ry="23.964" style="stroke:#000000;stroke-width:1;"/><text fill="#000000" font-family="Verdana" font-size="14" lengthAdjust="spacing" textLength="77.2871" x="371.0168" y="1579.1537">Continuare</text><text fill="#000000" font-family="Verdana" font-size="14" lengthAdjust="spacing" textLength="37.6045" x="390.8581" y="1595.4506">gioco</text></g><!--entity GV--><g class="entity" data-entity="GV" data-source-line="23" data-uid="ent0002" id="entity_GV"><ellipse cx="45.002" cy="1427.74" fill="#E6F3FF" rx="8" ry="8" style="stroke:#000000;stroke-width:1;"/><path d="M45.002,1435.74 L45.002,1462.74 M32.002,1443.74 L58.002,1443.74 M45.002,1462.74 L32.002,1477.74 M45.002,1462.74 L58.002,1477.74" fill="none" style="stroke:#000000;stroke-width:1;"/><text fill="#000000" font-family="Verdana" font-size="14" lengthAdjust="spacing" textLength="68.0039" x="11" y="1492.7351">Giocatore</text><text fill="#000000" font-family="Verdana" font-size="14" lengthAdjust="spacing" textLength="61.0586" x="11" y="1509.032">vincitore</text></g><!--entity AG_All--><g class="entity" data-entity="AG_All" data-source-line="24" data-uid="ent0003" id="entity_AG_All"><ellipse cx="884.4592" cy="1281.74" fill="#E6F3FF" rx="8" ry="8" style="stroke:#000000;stroke-width:1;"/><path d="M884.4592,1289.74 L884.4592,1316.74 M871.4592,1297.74 L897.4592,1297.74 M884.4592,1316.74 L871.4592,1331.74 M884.4592,1316.74 L897.4592,1331.74" fill="none" style="stroke:#000000;stroke-width:1;"/><text fill="#000000" font-family="Verdana" font-size="14" lengthAdjust="spacing" textLength="40.6328" x="853.8" y="1346.7351">Tutti i</text><text fill="#000000" font-family="Verdana" font-size="14" lengthAdjust="spacing" textLength="61.3184" x="853.8" y="1363.032">giocatori</text></g><g class="entity" data-entity="GMN23" data-source-line="58" data-uid="ent0024" id="entity_GMN23"><path d="M275.06,1638.87 L275.06,1800.1981 L544.247,1800.1981 L544.247,1648.87 L534.247,1638.87 L275.06,1638.87" fill="#FFFFCC" style="stroke:#000000;stroke-width:1;"/><path d="M534.247,1638.87 L534.247,1648.87 L544.247,1648.87 L534.247,1638.87" fill="#FFFFCC" style="stroke:#000000;stroke-width:1;"/><text fill="#000000" font-family="Verdana" font-size="13" font-weight="bold" lengthAdjust="spacing" textLength="108.6338" x="281.06" y="1655.9369">Precondizione:</text><text fill="#000000" font-family="Verdana" font-size="13" lengthAdjust="spacing" textLength="248.187" x="281.06" y="1671.0697">- Giocatore ha completato movimento</text><text fill="#000000" font-family="Verdana" font-size="13" lengthAdjust="spacing" textLength="156.8823" x="281.06" y="1686.2025">- Effetti caselle applicati</text><text fill="#000000" font-family="Verdana" font-size="13" lengthAdjust="spacing" textLength="4.1323" x="281.06" y="1701.3353">&#160;</text><text fill="#000000" font-family="Verdana" font-size="13" font-weight="bold" lengthAdjust="spacing" textLength="144.168" x="281.06" y="1716.4681">Condizione vittoria:</text><text fill="#000000" font-family="Verdana" font-size="13" lengthAdjust="spacing" textLength="191.8008" x="281.06" y="1731.601">Posizione finale = 63 (esatto)</text><text fill="#000000" font-family="Verdana" font-size="13" lengthAdjust="spacing" textLength="4.1323" x="281.06" y="1746.7338">&#160;</text><text fill="#000000" font-family="Verdana" font-size="13" font-weight="bold" lengthAdjust="spacing" textLength="111.9282" x="281.06" y="1761.8666">Postcondizioni:</text><text fill="#000000" font-family="Verdana" font-size="13" lengthAdjust="spacing" textLength="190.9692" x="281.06" y="1776.9994">- Partita terminata SE vittoria</text><text fill="#000000" font-family="Verdana" font-size="13" lengthAdjust="spacing" textLength="197.6216" x="281.06" y="1792.1322">- Gioco continua SE no vittoria</text></g><g class="entity" data-entity="GMN26" data-source-line="71" data-uid="ent0027" id="entity_GMN26"><path d="M254.86,690.44 L254.86,836.6353 A0,0 0 0 0 254.86,836.6353 L405.66,836.6353 L409.66,887.54 L413.66,836.6353 L564.4625,836.6353 A0,0 0 0 0 564.4625,836.6353 L564.4625,700.44 L554.4625,690.44 L254.86,690.44 A0,0 0 0 0 254.86,690.44" fill="#FFFFCC" style="stroke:#000000;stroke-width:1;"/><path d="M554.4625,690.44 L554.4625,700.44 L564.4625,700.44 L554.4625,690.44" fill="#FFFFCC" style="stroke:#000000;stroke-width:1;"/><text fill="#000000" font-family="Verdana" font-size="13" font-weight="bold" lengthAdjust="spacing" textLength="131.79" x="260.86" y="707.5069">Implementazione:</text><text fill="#000000" font-family="Verdana" font-size="13" lengthAdjust="spacing" textLength="288.6025" x="260.86" y="722.6397">PartitaController.verificaVincitore(giocatore)</text><text fill="#000000" font-family="Verdana" font-size="13" lengthAdjust="spacing" textLength="4.1323" x="260.86" y="737.7725">&#160;</text><text fill="#000000" font-family="Verdana" font-size="13" font-weight="bold" lengthAdjust="spacing" textLength="52.6538" x="260.86" y="752.9053">Logica:</text><text fill="#000000" font-family="Verdana" font-size="13" lengthAdjust="spacing" textLength="204.3438" x="260.86" y="768.0381">giocatore.getPosizione() == 63</text><text fill="#000000" font-family="Verdana" font-size="13" lengthAdjust="spacing" textLength="4.1323" x="260.86" y="783.171">&#160;</text><text fill="#000000" font-family="Verdana" font-size="13" font-weight="bold" lengthAdjust="spacing" textLength="126.4453" x="260.86" y="798.3038">Nota importante:</text><text fill="#000000" font-family="Verdana" font-size="13" lengthAdjust="spacing" textLength="188.4175" x="260.86" y="813.4366">Deve essere esattamente 63</text><text fill="#000000" font-family="Verdana" font-size="13" lengthAdjust="spacing" textLength="162.2651" x="260.86" y="828.5694">(rimbalzo gestito in UC3)</text></g><g class="entity" data-entity="GMN29" data-source-line="83" data-uid="ent0030" id="entity_GMN29"><path d="M248,524 L248,655.0625 L571.3071,655.0625 L571.3071,534 L561.3071,524 L248,524" fill="#FFFFCC" style="stroke:#000000;stroke-width:1;"/><path d="M561.3071,524 L561.3071,534 L571.3071,534 L561.3071,524" fill="#FFFFCC" style="stroke:#000000;stroke-width:1;"/><text fill="#000000" font-family="Verdana" font-size="13" font-weight="bold" lengthAdjust="spacing" textLength="49.9243" x="254" y="541.0669">Azioni:</text><text fill="#000000" font-family="Verdana" font-size="13" lengthAdjust="spacing" textLength="302.3071" x="254" y="556.1997">1. Identifica giocatore corrente come vincitore</text><text fill="#000000" font-family="Verdana" font-size="13" lengthAdjust="spacing" textLength="187.8208" x="254" y="571.3325">2. Registra momento vittoria</text><text fill="#000000" font-family="Verdana" font-size="13" lengthAdjust="spacing" textLength="211.6118" x="254" y="586.4653">3. Blocca ulteriori azioni di gioco</text><text fill="#000000" font-family="Verdana" font-size="13" lengthAdjust="spacing" textLength="4.1323" x="254" y="601.5981">&#160;</text><text fill="#000000" font-family="Verdana" font-size="13" font-weight="bold" lengthAdjust="spacing" textLength="131.79" x="254" y="616.731">Implementazione:</text><text fill="#000000" font-family="Verdana" font-size="13" lengthAdjust="spacing" textLength="196.2886" x="254" y="631.8638">Partita.setVincitore(giocatore)</text><text fill="#000000" font-family="Verdana" font-size="13" lengthAdjust="spacing" textLength="192.6514" x="254" y="646.9966">Partita.setDataVittoria(now())</text></g><g class="entity" data-entity="GMN32" data-source-line="94" data-uid="ent0033" id="entity_GMN32"><path d="M264.89,373.57 L264.89,489.4997 L554.4339,489.4997 L554.4339,383.57 L544.4339,373.57 L264.89,373.57" fill="#FFFFCC" style="stroke:#000000;stroke-width:1;"/><path d="M544.4339,373.57 L544.4339,383.57 L554.4339,383.57 L544.4339,373.57" fill="#FFFFCC" style="stroke:#000000;stroke-width:1;"/><text fill="#000000" font-family="Verdana" font-size="13" font-weight="bold" lengthAdjust="spacing" textLength="102.1465" x="270.89" y="390.6369">Cambio stato:</text><text fill="#000000" font-family="Verdana" font-size="13" lengthAdjust="spacing" textLength="268.5439" x="270.89" y="405.7697">Partita.setStato(StatoPartita.TERMINATA)</text><text fill="#000000" font-family="Verdana" font-size="13" lengthAdjust="spacing" textLength="4.1323" x="270.89" y="420.9025">&#160;</text><text fill="#000000" font-family="Verdana" font-size="13" font-weight="bold" lengthAdjust="spacing" textLength="51.0923" x="270.89" y="436.0353">Effetti:</text><text fill="#000000" font-family="Verdana" font-size="13" lengthAdjust="spacing" textLength="165.0898" x="270.89" y="451.1681">- Disabilita controlli gioco</text><text fill="#000000" font-family="Verdana" font-size="13" lengthAdjust="spacing" textLength="208.6729" x="270.89" y="466.301">- Blocca salvataggio automatico</text><text fill="#000000" font-family="Verdana" font-size="13" lengthAdjust="spacing" textLength="163.0522" x="270.89" y="481.4338">- Prepara cleanup risorse</text></g><g class="entity" data-entity="GMN35" data-source-line="104" data-uid="ent0036" id="entity_GMN35"><path d="M253.07,176.87 L253.07,338.1981 L566.2399,338.1981 L566.2399,186.87 L556.2399,176.87 L253.07,176.87" fill="#FFFFCC" style="stroke:#000000;stroke-width:1;"/><path d="M556.2399,176.87 L556.2399,186.87 L566.2399,186.87 L556.2399,176.87" fill="#FFFFCC" style="stroke:#000000;stroke-width:1;"/><text fill="#000000" font-family="Verdana" font-size="13" font-weight="bold" lengthAdjust="spacing" textLength="131.79" x="259.07" y="193.9369">Implementazione:</text><text fill="#000000" font-family="Verdana" font-size="13" lengthAdjust="spacing" textLength="292.1699" x="259.07" y="209.0697">InterfacciaUtente.mostraVincitore(giocatore)</text><text fill="#000000" font-family="Verdana" font-size="13" lengthAdjust="spacing" textLength="4.1323" x="259.07" y="224.2025">&#160;</text><text fill="#000000" font-family="Verdana" font-size="13" font-weight="bold" lengthAdjust="spacing" textLength="164.7471" x="259.07" y="239.3353">Contenuto messaggio:</text><text fill="#000000" font-family="Verdana" font-size="13" lengthAdjust="spacing" textLength="107.9927" x="259.07" y="254.4681">- Nome vincitore</text><text fill="#000000" font-family="Verdana" font-size="13" lengthAdjust="spacing" textLength="101.0991" x="259.07" y="269.601">- Tempo partita</text><text fill="#000000" font-family="Verdana" font-size="13" lengthAdjust="spacing" textLength="113.4644" x="259.07" y="284.7338">- Statistiche finali</text><text fill="#000000" font-family="Verdana" font-size="13" lengthAdjust="spacing" textLength="4.1323" x="259.07" y="299.8666">&#160;</text><text fill="#000000" font-family="Verdana" font-size="13" font-weight="bold" lengthAdjust="spacing" textLength="87.0962" x="259.07" y="314.9994">Destinatari:</text><text fill="#000000" font-family="Verdana" font-size="13" lengthAdjust="spacing" textLength="159.6689" x="259.07" y="330.1322">Tutti i giocatori connessi</text></g><g class="entity" data-entity="GMN38" data-source-line="117" data-uid="ent0039" id="entity_GMN38"><path d="M313.17,11 L313.17,142.0625 L506.1471,142.0625 L506.1471,21 L496.1471,11 L313.17,11" fill="#FFFFCC" style="stroke:#000000;stroke-width:1;"/><path d="M496.1471,11 L496.1471,21 L506.1471,21 L496.1471,11" fill="#FFFFCC" style="stroke:#000000;stroke-width:1;"/><text fill="#000000" font-family="Verdana" font-size="13" font-weight="bold" lengthAdjust="spacing" textLength="88.8418" x="319.17" y="28.0669">Dati salvati:</text><text fill="#000000" font-family="Verdana" font-size="13" lengthAdjust="spacing" textLength="100.915" x="319.17" y="43.1997">- Durata partita</text><text fill="#000000" font-family="Verdana" font-size="13" lengthAdjust="spacing" textLength="120.6118" x="319.17" y="58.3325">- Numero turni/giri</text><text fill="#000000" font-family="Verdana" font-size="13" lengthAdjust="spacing" textLength="168.8984" x="319.17" y="73.4653">- Statistiche per giocatore</text><text fill="#000000" font-family="Verdana" font-size="13" lengthAdjust="spacing" textLength="171.9771" x="319.17" y="88.5981">- Caselle speciali utilizzate</text><text fill="#000000" font-family="Verdana" font-size="13" lengthAdjust="spacing" textLength="4.1323" x="319.17" y="103.731">&#160;</text><text fill="#000000" font-family="Verdana" font-size="13" font-weight="bold" lengthAdjust="spacing" textLength="63.0132" x="319.17" y="118.8638">Storage:</text><text fill="#000000" font-family="Verdana" font-size="13" lengthAdjust="spacing" textLength="141.6099" x="319.17" y="133.9966">File o database locale</text></g><g class="entity" data-entity="GMN41" data-source-line="128" data-uid="ent0042" id="entity_GMN41"><path d="M763.31,1506.44 L763.31,1575.54 L462.61,1579.54 L763.31,1583.54 L763.31,1652.6353 A0,0 0 0 0 763.31,1652.6353 L1005.6147,1652.6353 A0,0 0 0 0 1005.6147,1652.6353 L1005.6147,1516.44 L995.6147,1506.44 L763.31,1506.44 A0,0 0 0 0 763.31,1506.44" fill="#FFFFCC" style="stroke:#000000;stroke-width:1;"/><path d="M995.6147,1506.44 L995.6147,1516.44 L1005.6147,1516.44 L995.6147,1506.44" fill="#FFFFCC" style="stroke:#000000;stroke-width:1;"/><text fill="#000000" font-family="Verdana" font-size="13" font-weight="bold" lengthAdjust="spacing" textLength="85.7124" x="769.31" y="1523.5069">Condizione:</text><text fill="#000000" font-family="Verdana" font-size="13" lengthAdjust="spacing" textLength="221.3047" x="769.31" y="1538.6397">Nessun giocatore ha raggiunto 63</text><text fill="#000000" font-family="Verdana" font-size="13" lengthAdjust="spacing" textLength="4.1323" x="769.31" y="1553.7725">&#160;</text><text fill="#000000" font-family="Verdana" font-size="13" font-weight="bold" lengthAdjust="spacing" textLength="54.2852" x="769.31" y="1568.9053">Azione:</text><text fill="#000000" font-family="Verdana" font-size="13" lengthAdjust="spacing" textLength="154.4702" x="769.31" y="1584.0381">Ritorna al ciclo normale</text><text fill="#000000" font-family="Verdana" font-size="13" lengthAdjust="spacing" textLength="191.4644" x="769.31" y="1599.171">Procede a UC5 (Gestire turni)</text><text fill="#000000" font-family="Verdana" font-size="13" lengthAdjust="spacing" textLength="4.1323" x="769.31" y="1614.3038">&#160;</text><text fill="#000000" font-family="Verdana" font-size="13" font-weight="bold" lengthAdjust="spacing" textLength="44.6938" x="769.31" y="1629.4366">Stato:</text><text fill="#000000" font-family="Verdana" font-size="13" lengthAdjust="spacing" textLength="163.8965" x="769.31" y="1644.5694">Partita rimane IN_CORSO</text></g><!--link GV to UC6--><g class="link" data-entity-1="GV" data-entity-2="UC6" data-source-line="38" data-uid="lnk13" id="link_GV_UC6"><path d="M48.14,1418.34 C53.06,1330.78 68.08,1147.85 109,1101.54 C162.82,1040.63 250.0094,1020.4128 318.1994,1013.6428" fill="none" id="GV-to-UC6" style="stroke:#000000;stroke-width:1;"/><polygon fill="#000000" points="324.17,1013.05,314.8188,1009.9587,319.1945,1013.544,315.6092,1017.9196,324.17,1013.05" style="stroke:#000000;stroke-width:1;"/></g><!--link UC6 to VerificaVittoria--><g class="link" data-entity-1="UC6" data-entity-2="VerificaVittoria" data-source-line="41" data-uid="lnk14" id="link_UC6_VerificaVittoria"><path d="M409.66,986.06 C409.66,970.6 409.66,956.72 409.66,941.38" fill="none" id="UC6-to-VerificaVittoria" style="stroke:#000000;stroke-width:1;stroke-dasharray:7.0,7.0;"/><polygon fill="#000000" points="409.66,935.38,405.66,944.38,409.66,940.38,413.66,944.38,409.66,935.38" style="stroke:#000000;stroke-width:1;"/><text fill="#000000" font-family="Verdana" font-size="13" lengthAdjust="spacing" textLength="63.0068" x="366.66" y="965.3269">&#171;include&#187;</text></g><!--link DichiaraVincitore to UC6--><g class="link" data-entity-1="DichiaraVincitore" data-entity-2="UC6" data-source-line="44" data-uid="lnk15" id="link_DichiaraVincitore_UC6"><path d="M409.66,1101.08 C409.66,1081.47 409.66,1060.53 409.66,1041.14" fill="none" id="DichiaraVincitore-to-UC6" style="stroke:#000000;stroke-width:1;stroke-dasharray:7.0,7.0;"/><polygon fill="#000000" points="409.66,1035.14,405.66,1044.14,409.66,1040.14,413.66,1044.14,409.66,1035.14" style="stroke:#000000;stroke-width:1;"/><text fill="#000000" font-family="Verdana" font-size="13" lengthAdjust="spacing" textLength="61.1851" x="360.0973" y="1065.0969">&#171;extend&#187;</text><text fill="#000000" font-family="Verdana" font-size="13" lengthAdjust="spacing" textLength="107.0596" x="337.16" y="1080.2297">[posizione = 63]</text></g><!--link TerminaPartita to DichiaraVincitore--><g class="link" data-entity-1="TerminaPartita" data-entity-2="DichiaraVincitore" data-source-line="45" data-uid="lnk16" id="link_TerminaPartita_DichiaraVincitore"><path d="M360.58,1317.71 C305.13,1321.59 216.77,1317.83 172.03,1263.04 C114.63,1192.74 268.8091,1152.5591 354.1391,1136.0591" fill="none" id="TerminaPartita-to-DichiaraVincitore" style="stroke:#000000;stroke-width:1;stroke-dasharray:7.0,7.0;"/><polygon fill="#000000" points="360.03,1134.92,350.4343,1132.7014,355.1209,1135.8693,351.9531,1140.5559,360.03,1134.92" style="stroke:#000000;stroke-width:1;"/><text fill="#000000" font-family="Verdana" font-size="13" lengthAdjust="spacing" textLength="63.0068" x="132" y="1259.1069">&#171;include&#187;</text></g><!--link NotificaVittoria to DichiaraVincitore--><g class="link" data-entity-1="NotificaVittoria" data-entity-2="DichiaraVincitore" data-source-line="46" data-uid="lnk17" id="link_NotificaVittoria_DichiaraVincitore"><path d="M409.66,1202.31 C409.66,1187 409.66,1173.52 409.66,1158.14" fill="none" id="NotificaVittoria-to-DichiaraVincitore" style="stroke:#000000;stroke-width:1;stroke-dasharray:7.0,7.0;"/><polygon fill="#000000" points="409.66,1152.14,405.66,1161.14,409.66,1157.14,413.66,1161.14,409.66,1152.14" style="stroke:#000000;stroke-width:1;"/><text fill="#000000" font-family="Verdana" font-size="13" lengthAdjust="spacing" textLength="63.0068" x="366.66" y="1181.8369">&#171;include&#187;</text></g><!--link SalvaStatistiche to TerminaPartita--><g class="link" data-entity-1="SalvaStatistiche" data-entity-2="TerminaPartita" data-source-line="47" data-uid="lnk18" id="link_SalvaStatistiche_TerminaPartita"><path d="M327.93,1493.23 C272.38,1486.01 203.49,1466.06 172.03,1413.04 C129,1340.5 271.3355,1320.1914 353.1755,1314.2914" fill="none" id="SalvaStatistiche-to-TerminaPartita" style="stroke:#000000;stroke-width:1;stroke-dasharray:7.0,7.0;"/><polygon fill="#000000" points="359.16,1313.86,349.8957,1310.5175,354.1729,1314.2195,350.4709,1318.4968,359.16,1313.86" style="stroke:#000000;stroke-width:1;"/><text fill="#000000" font-family="Verdana" font-size="13" lengthAdjust="spacing" textLength="63.0068" x="132" y="1409.1069">&#171;include&#187;</text></g><!--link RitornaMenu to TerminaPartita--><g class="link" data-entity-1="RitornaMenu" data-entity-2="TerminaPartita" data-source-line="48" data-uid="lnk19" id="link_RitornaMenu_TerminaPartita"><path d="M409.66,1387.57 C409.66,1371.91 409.66,1357.82 409.66,1342.22" fill="none" id="RitornaMenu-to-TerminaPartita" style="stroke:#000000;stroke-width:1;stroke-dasharray:7.0,7.0;"/><polygon fill="#000000" points="409.66,1336.22,405.66,1345.22,409.66,1341.22,413.66,1345.22,409.66,1336.22" style="stroke:#000000;stroke-width:1;"/><text fill="#000000" font-family="Verdana" font-size="13" lengthAdjust="spacing" textLength="63.0068" x="366.66" y="1366.4569">&#171;include&#187;</text></g><!--link ContinuaGioco to UC6--><g class="link" data-entity-1="ContinuaGioco" data-entity-2="UC6" data-source-line="51" data-uid="lnk20" id="link_ContinuaGioco_UC6"><path d="M356.6,1579.17 C321.24,1576.05 276.24,1566.1 248,1537.54 C179.41,1468.14 94.68,1189.89 150.03,1109.54 C189.64,1052.03 261.553,1028.9045 321.703,1018.7945" fill="none" id="ContinuaGioco-to-UC6" style="stroke:#000000;stroke-width:1;stroke-dasharray:7.0,7.0;"/><polygon fill="#000000" points="327.62,1017.8,318.0815,1015.3471,322.6892,1018.6288,319.4075,1023.2365,327.62,1017.8" style="stroke:#000000;stroke-width:1;"/><text fill="#000000" font-family="Verdana" font-size="13" lengthAdjust="spacing" textLength="61.1851" x="132.9373" y="1122.6069">&#171;extend&#187;</text><text fill="#000000" font-family="Verdana" font-size="13" lengthAdjust="spacing" textLength="107.0596" x="110" y="1137.7397">[posizione &#8800; 63]</text></g><!--link NotificaVittoria to AG_All--><g class="link" data-entity-1="NotificaVittoria" data-entity-2="AG_All" data-source-line="54" data-uid="lnk21" id="link_NotificaVittoria_AG_All"><path d="M455.14,1236.19 C550.54,1254.75 766.8004,1296.8342 847.5504,1312.5442" fill="none" id="NotificaVittoria-to-AG_All" style="stroke:#000000;stroke-width:1;"/><polygon fill="#000000" points="853.44,1313.69,845.3695,1308.0449,848.532,1312.7351,843.8418,1315.8976,853.44,1313.69" style="stroke:#000000;stroke-width:1;"/><text fill="#000000" font-family="Verdana" font-size="13" lengthAdjust="spacing" textLength="130.895" x="602.31" y="1261.6069">(messaggio vittoria)</text></g><!--link RitornaMenu to AG_All--><g class="link" data-entity-1="RitornaMenu" data-entity-2="AG_All" data-source-line="55" data-uid="lnk22" id="link_RitornaMenu_AG_All"><path d="M476.9,1399.51 C580.84,1379.06 772.2728,1341.4082 847.4528,1326.6182" fill="none" id="RitornaMenu-to-AG_All" style="stroke:#000000;stroke-width:1;"/><polygon fill="#000000" points="853.34,1325.46,843.7371,1323.2725,848.434,1326.4251,845.2814,1331.122,853.34,1325.46" style="stroke:#000000;stroke-width:1;"/><text fill="#000000" font-family="Verdana" font-size="13" lengthAdjust="spacing" textLength="94.8213" x="620.31" y="1346.6069">(fine sessione)</text></g><!--link GV to GMN23--><g class="link" data-entity-1="GV" data-entity-2="GMN23" data-source-line="58" data-uid="lnk25" id="link_GV_GMN23"><path d="M79.23,1492.42 C118.68,1523.97 186.85,1577.33 248,1619.54 C257.06,1625.79 266.5,1632.11 276.06,1638.39" fill="none" id="GV-GMN23" style="stroke:#000000;stroke-width:1;stroke-dasharray:7.0,7.0;"/></g><!--link DichiaraVincitore to GMN29--><g class="link" data-entity-1="DichiaraVincitore" data-entity-2="GMN29" data-source-line="83" data-uid="lnk31" id="link_DichiaraVincitore_GMN29"><path d="M357.11,1123.74 C298.75,1117.5 207.03,1097.65 163.5,1035.04 C75.98,909.13 77.99,817.31 163.5,690.04 C183.65,660.05 214.47,639.01 247.57,624.24" fill="none" id="DichiaraVincitore-GMN29" style="stroke:#000000;stroke-width:1;stroke-dasharray:7.0,7.0;"/></g><!--link TerminaPartita to GMN32--><g class="link" data-entity-1="TerminaPartita" data-entity-2="GMN32" data-source-line="94" data-uid="lnk34" id="link_TerminaPartita_GMN32"><path d="M359.62,1315.82 C302.01,1317.65 209.46,1310.42 163.5,1252.04 C63.45,1124.91 71.4,657.04 163.5,524.04 C187.22,489.79 225.3,468.2 264.5,454.6" fill="none" id="TerminaPartita-GMN32" style="stroke:#000000;stroke-width:1;stroke-dasharray:7.0,7.0;"/></g><!--link NotificaVittoria to GMN35--><g class="link" data-entity-1="NotificaVittoria" data-entity-2="GMN35" data-source-line="104" data-uid="lnk37" id="link_NotificaVittoria_GMN35"><path d="M361.04,1228.41 C303.23,1226.5 208.88,1213.41 163.5,1152.04 C60.73,1013.01 71.03,520.11 163.5,374.04 C184.43,340.98 217.55,317.12 252.79,299.97" fill="none" id="NotificaVittoria-GMN35" style="stroke:#000000;stroke-width:1;stroke-dasharray:7.0,7.0;"/></g><!--link SalvaStatistiche to GMN38--><g class="link" data-entity-1="SalvaStatistiche" data-entity-2="GMN38" data-source-line="117" data-uid="lnk40" id="link_SalvaStatistiche_GMN38"><path d="M328.48,1500.79 C272.62,1498.85 201.84,1485.75 163.5,1437.04 C76.92,1327.02 85.43,293.24 163.5,177.04 C196.78,127.51 259.2,102.38 312.85,89.63" fill="none" id="SalvaStatistiche-GMN38" style="stroke:#000000;stroke-width:1;stroke-dasharray:7.0,7.0;"/></g><!--SRC=[ZLRTRjis5BxNKt3knUm0zdw21KFG6d3jE0ZGka7iUXVBKD0oBHEbI86atCt37c1lqMVha-mSYfH4AqxcYyIcpiztlk-SGtrdzondf12KoyHyvhAWckQaD2obXf6_4mAVjpJzd6bLokrK2QN9RtjkMVL4wItJrUbR0MRkTAAr-j8-_ASLcgOMpfyE_EhcQduvdvy9tOwYMMgfpCGvYA_cFyv_FHi9J-TAsgNz2o9ibDX6mQMov-F2PpezYp0HR6U9LKJpR6_9bYDGhcIIL7NtRhbAANnZZ_B0PShnQuzGGsxNmMHLMii9VvIPj-NEO7BxQI94aZIbzwPAfg8q41yafDfoItiUU53mu_GAdNlm_vhCc6Kwvv9YUYv8Wo3oMJFDTpobQsunEtK1mg5c95Loou-O5OkeRE88CvxkEN2v3WbSY70Q5nyvhYfyzrKnpclLG0urHYuBPRjemw4-2t59nO4kBRNSMC1L8NI7w6DQ3vxC-e3W9NtFPEay_M-iL3pA78yBZJKML9pK2AfPBakAhQ2SSpZ1p2Ywwc4hVKyUcA37IjqwLdAx9iFX68Ljcq33O2zi6UaRbXU0WncMbJ2eWmHxO3JkodfDNh_sNkCn1hjdEbNQA18e8ttsfsLosqWE20P9LzwH0-GYLXxZyQFylL2cwXFoXbnT_f6Sg0jEtKWng8wu_yEdeopud6IE7TfQlcJRPYdribKb1ggeW26JaFsW1acizKiiVVltg-C9alZ2zwnB0QfVBGE8rC-PCJI3hgb56qG5nTOx3caCk62-GPAuLLVjAhN37OIDUd5n3qkc7lBhYmjtF2JryY9x2jNdXM10ioAvEd1eUQkytSrknt27ORiBM5IqA0HKOBbxxdDCwmGryf3flcO4y4B7kVO1WWq5kq4x25ZQ6Ybla0Rn_Bw3RykREashcaP4D90DYGbAYUnuZZOApdCawNICF98xP0D9e15f7WZsWLR0XHuTQd_VllsmvrbKsZkLWLM8KzkCCcPhVle3yWQvQVj1lr32yq9fk2Pi3MJ63hWJ37Eh0OYa29O5vxxc-OQAeo8PWx41KRc4PhqSd2UYCuSUm2JIugSHkTj29bTpKmRmhhK307t4cfl8-VmyWhsMmVXg2htbEYiMxt84DwvA8M29qyRX0V5hSCjT4jMcv7bjHeRPisAqR6RGHa7qlbHV-eDdo8cNI6XvcczWKF5oKK-0m9sb-kvlE5tTFBo_MqnMawWr_7mrxJxZXcwum8vFVQUrQHW6jWokHbkj2re2L9Z9sWQ67jz_I2eObMK1Qy70ccFdQppTJC-pVGTYwnrDKqu_MbH-b2jK-AKvmD61HOPh9gowfl15jtc6m3rqVxYs_LdxFd1B9Tf5C-nvN1Ew9jM_XTKTov5PYPlpF26dDq-83WUU-hPcfSQz5CDSb3dJYjXII_v3nZL_0dx1T3D7_ldKRrfJCE0Nn2yjjCFnIFsBkaUo11UQrPBCERWeiWKS6tmpWIR1DuoJ-khh8RhCEbiy15q0HwLiJJhS5HfbAt6CurqrYJpzjGKtA4bvAXI0q3a2SdEYLShWzOR2Llg5z6zHCGZkc1h4DNQd2sh8ALmdTujFqmyFomzrYVy1]--></g></svg>